<?xml version="1.0" encoding="UTF-8"?>
<!DOCTYPE svg PUBLIC "-//W3C//DTD SVG 1.1//EN" "http://www.w3.org/Graphics/SVG/1.1/DTD/svg11.dtd">
<!-- Creator: CorelDRAW -->
<svg xmlns="http://www.w3.org/2000/svg" xml:space="preserve" width="12.6914mm" height="12.7mm" version="1.1" style="shape-rendering:geometricPrecision; text-rendering:geometricPrecision; image-rendering:optimizeQuality; fill-rule:evenodd; clip-rule:evenodd"
viewBox="0 0 360 360.25"
 xmlns:xlink="http://www.w3.org/1999/xlink"
 xmlns:xodm="http://www.corel.com/coreldraw/odm/2003">
 <defs>
  <style type="text/css">
   <![CDATA[
    .fil1 {fill:#E31E24}
    .fil0 {fill:#2B2A29;fill-rule:nonzero}
   ]]>
  </style>
 </defs>
 <g id="Layer_x0020_1">
  <metadata id="CorelCorpID_0Corel-Layer"/>
  <g id="_2741187583360">
   <path class="fil0" d="M18.88 0l200.61 0c5.2,0 9.93,2.12 13.34,5.54 3.42,3.42 5.54,8.15 5.54,13.34l0 53.19 -14.02 0 0 -53.19c0,-1.33 -0.55,-2.55 -1.43,-3.44 -0.89,-0.89 -2.1,-1.44 -3.44,-1.44l-200.61 0c-1.33,0 -2.55,0.55 -3.44,1.44 -0.89,0.88 -1.44,2.1 -1.44,3.44l0 322.47c0,1.34 0.55,2.55 1.44,3.44 0.89,0.89 2.1,1.44 3.44,1.44l200.61 0c1.33,0 2.55,-0.55 3.44,-1.44 0.88,-0.88 1.43,-2.1 1.43,-3.44l0 -117.59 14.02 0 0 117.59c0,5.2 -2.12,9.92 -5.54,13.34 -3.42,3.42 -8.14,5.54 -13.34,5.54l-200.61 0c-5.2,0 -9.92,-2.12 -13.34,-5.54 -3.42,-3.42 -5.54,-8.14 -5.54,-13.34l0 -322.47c0,-5.2 2.12,-9.92 5.54,-13.34 3.42,-3.42 8.15,-5.54 13.34,-5.54zm127.98 173.52c3.87,0 7.01,3.14 7.01,7.01 0,3.87 -3.14,7.01 -7.01,7.01l-97.57 0 0 80.36 18.27 -22.27 -0.02 -0.01c0.91,-1.11 2.03,-1.98 3.34,-2.6 1.33,-0.64 2.73,-0.96 4.16,-0.96l71.51 0c3.87,0 7.01,3.14 7.01,7.01 0,3.87 -3.14,7.01 -7.01,7.01l-69.49 0 -24.58 29.96c-1.04,1.27 -2.33,2.22 -3.78,2.81 -0.37,0.17 -0.75,0.31 -1.16,0.43 -1.9,0.52 -3.96,0.43 -5.93,-0.31 -1.65,-0.63 -3.04,-1.66 -4.1,-2.96 -0.18,-0.21 -0.35,-0.43 -0.51,-0.66 -1.1,-1.61 -1.72,-3.53 -1.72,-5.55l0 -96.44c0,-2.65 1.08,-5.07 2.8,-6.85 1.78,-1.82 4.23,-2.96 6.93,-2.96l101.85 0zm49.22 -137.49c3.87,0 7.01,3.14 7.01,7.01 0,3.87 -3.14,7.01 -7.01,7.01l-146.79 0 0 80.35 18.27 -22.27 -0.02 -0.01c0.91,-1.11 2.03,-1.98 3.34,-2.61 1.33,-0.64 2.73,-0.96 4.16,-0.96l71.51 0c3.87,0 7.01,3.14 7.01,7.01 0,3.87 -3.14,7.01 -7.01,7.01l-69.49 0 -24.58 29.96c-1.04,1.27 -2.33,2.21 -3.78,2.81 -0.37,0.17 -0.75,0.31 -1.16,0.43 -1.9,0.52 -3.96,0.43 -5.93,-0.31 -1.65,-0.63 -3.04,-1.66 -4.1,-2.96 -0.18,-0.21 -0.35,-0.43 -0.51,-0.66 -1.1,-1.61 -1.72,-3.53 -1.72,-5.55l0 -96.44c0,-2.65 1.08,-5.07 2.8,-6.85 1.78,-1.82 4.23,-2.96 6.93,-2.96l151.07 0zm-60.84 275.79c3.87,0 7.01,3.14 7.01,7.01 0,3.87 -3.14,7.01 -7.01,7.01l-32.11 0c-3.87,0 -7.01,-3.14 -7.01,-7.01 0,-3.87 3.14,-7.01 7.01,-7.01l32.11 0z"/>
   <path class="fil1" d="M350.79 72.08l-169.36 0c-5.07,0 -9.21,4.14 -9.21,9.21l0 71.98 0 61.29 0 35.15c0,2.02 0.62,3.94 1.72,5.55 0.16,0.24 0.33,0.46 0.51,0.66 1.06,1.3 2.46,2.33 4.1,2.96 1.97,0.74 4.03,0.82 5.93,0.31 0.4,-0.11 0.79,-0.25 1.16,-0.43 1.44,-0.6 2.74,-1.55 3.78,-2.81l25.87 -31.54c0.17,-0.21 0.33,-0.42 0.47,-0.64l135.03 0c5.07,0 9.21,-4.15 9.21,-9.21l0 -133.27c0,-5.07 -4.15,-9.21 -9.21,-9.21zm-31.13 67.12c3.87,0 7.01,3.14 7.01,7.01 0,3.87 -3.14,7.01 -7.01,7.01l-107.71 0c-3.87,0 -7.01,-3.14 -7.01,-7.01 0,-3.87 3.14,-7.01 7.01,-7.01l107.71 0zm0 41.93c3.87,0 7.01,3.14 7.01,7.01 0,3.87 -3.14,7.01 -7.01,7.01l-107.71 0c-3.87,0 -7.01,-3.14 -7.01,-7.01 0,-3.87 3.14,-7.01 7.01,-7.01l107.71 0zm0 -83.86c3.87,0 7.01,3.14 7.01,7.01 0,3.87 -3.14,7.01 -7.01,7.01l-107.71 0c-3.87,0 -7.01,-3.14 -7.01,-7.01 0,-3.87 3.14,-7.01 7.01,-7.01l107.71 0z"/>
  </g>
 </g>
</svg>
