<?xml version="1.0" encoding="UTF-8"?>
<!DOCTYPE svg PUBLIC "-//W3C//DTD SVG 1.1//EN" "http://www.w3.org/Graphics/SVG/1.1/DTD/svg11.dtd">
<!-- Creator: CorelDRAW -->
<svg xmlns="http://www.w3.org/2000/svg" xml:space="preserve" width="11.7993mm" height="9.8178mm" version="1.1" style="shape-rendering:geometricPrecision; text-rendering:geometricPrecision; image-rendering:optimizeQuality; fill-rule:evenodd; clip-rule:evenodd"
viewBox="0 0 315.98 262.92"
 xmlns:xlink="http://www.w3.org/1999/xlink"
 xmlns:xodm="http://www.corel.com/coreldraw/odm/2003">
 <defs>
  <style type="text/css">
   <![CDATA[
    .str0 {stroke:#2B2A29;stroke-width:13.24;stroke-miterlimit:22.9256}
    .fil0 {fill:none}
    .fil1 {fill:#E31E24}
   ]]>
  </style>
 </defs>
 <g id="Layer_x0020_1">
  <metadata id="CorelCorpID_0Corel-Layer"/>
  <g id="_1947901788768">
   <path class="fil0 str0" d="M20.89 256.3l274.21 0c1.9,0 3.45,-1.55 3.45,-3.45l0 -183.06 -281.11 0 0 183.06c0,1.9 1.55,3.45 3.45,3.45z"/>
   <path class="fil0 str0" d="M23.86 27.8l268.27 0c9.49,0 17.23,7.74 17.23,17.24l0 17.86c0,3.79 -3.1,6.89 -6.89,6.89l-288.95 0c-3.8,0 -6.89,-3.1 -6.89,-6.89l0 -17.86c0,-9.49 7.74,-17.24 17.23,-17.24z"/>
   <g>
    <path class="fil0 str0" d="M96.01 27.8l0 -14.28c0,-3.8 -3.1,-6.89 -6.89,-6.89l-33.81 0c-3.79,0 -6.89,3.1 -6.89,6.89l0 14.28 47.6 0z"/>
    <path class="fil0 str0" d="M267.57 27.8l0 -14.28c0,-3.8 -3.1,-6.89 -6.89,-6.89l-33.81 0c-3.79,0 -6.89,3.1 -6.89,6.89l0 14.28 47.6 0z"/>
   </g>
   <path class="fil1" d="M115.02 95.36l42.97 0 42.97 0c1.4,0 2.55,1.15 2.55,2.55l0 42.97 0 2.79 0 12.51c0,22.73 -16.89,41.71 -38.73,45.01l0 24.3c0,2.58 -2.12,5.22 -4.71,5.22l-4.15 0c-2.59,0 -4.71,-2.63 -4.71,-5.22l0 -24.3c-21.85,-3.3 -38.73,-22.28 -38.73,-45.01l0 -12.51 0 -2.79 0 -42.97c0,-1.4 1.15,-2.55 2.55,-2.55zm47.14 22.24c1.88,-2.6 5.51,-3.18 8.11,-1.3 2.6,1.88 3.18,5.51 1.3,8.11l-12.19 16.76 11.43 0c3.21,0 5.82,2.61 5.82,5.82 0,1.38 -0.48,2.65 -1.29,3.65l-19.56 26.21c-1.92,2.57 -5.56,3.1 -8.13,1.18 -2.57,-1.92 -3.1,-5.56 -1.18,-8.13l12.76 -17.09 -11.25 0c-1.18,-0.01 -2.38,-0.36 -3.41,-1.11 -2.59,-1.88 -3.18,-5.51 -1.29,-8.11l18.89 -25.99z"/>
  </g>
 </g>
</svg>
