<?xml version="1.0" encoding="UTF-8"?>
<!DOCTYPE svg PUBLIC "-//W3C//DTD SVG 1.1//EN" "http://www.w3.org/Graphics/SVG/1.1/DTD/svg11.dtd">
<!-- Creator: CorelDRAW -->
<svg xmlns="http://www.w3.org/2000/svg" xml:space="preserve" width="10.9072mm" height="11.0561mm" version="1.1" style="shape-rendering:geometricPrecision; text-rendering:geometricPrecision; image-rendering:optimizeQuality; fill-rule:evenodd; clip-rule:evenodd"
viewBox="0 0 487.5 494.16"
 xmlns:xlink="http://www.w3.org/1999/xlink"
 xmlns:xodm="http://www.corel.com/coreldraw/odm/2003">
 <defs>
  <style type="text/css">
   <![CDATA[
    .fil0 {fill:#020202}
    .fil2 {fill:#D82D1E}
    .fil1 {fill:#FDFDFD}
   ]]>
  </style>
 </defs>
 <g id="Layer_x0020_1">
  <metadata id="CorelCorpID_0Corel-Layer"/>
  <path class="fil0" d="M190.18 55.15c-6.72,2.44 -14.76,4.87 -21.71,7.91 -7.16,3.13 -14.98,7.92 -21.97,10.23 -9.85,-4.68 -30.03,-24.36 -37.98,-26.03 -12.5,-2.61 -24.8,13.99 -37.31,26.92 -13.4,13.85 -28.1,23.83 -26.79,35.83 0.93,8.43 20.53,30.41 25.82,39.46 -1.66,6.88 -6.34,14.29 -9.34,21.28 -2.85,6.63 -5.32,14.67 -7.68,22.17 -50.41,12.63 -52.65,-6.82 -52.67,53.95 -0,14.98 -3.55,38.76 7.45,45.8 12.26,7.84 32.76,4.27 44.82,10.21 0.42,0.76 17.27,42.88 17.28,42.95 -1.68,9.37 -35.11,33.56 -22.49,50.16 5.05,6.64 13.2,13.9 19.24,20.07 7.1,7.27 12.95,13.57 20.16,20.68 20.73,20.45 23.96,12.45 49.8,-7.93 12.88,-10.16 8.77,-7.05 24.22,-0.12 9.53,4.28 19.08,8.14 29.24,11.42 7.53,55.07 -1.63,53.52 53.63,53.52 16.22,-0 39.03,3.6 45.38,-8.17 2.88,-5.33 7.33,-36.89 8.29,-45.31l43.73 -18.04c6.32,4.59 31.7,24.92 37.9,26.06 11.01,2.03 16.45,-5.79 20.88,-10.57 5.73,-6.19 10.43,-10.7 16.32,-16.68 5.62,-5.71 9.67,-10.56 15.18,-16.24 4.48,-4.61 12.37,-9.22 11.47,-19.34 -0.79,-8.85 -20.04,-29.98 -25.21,-39.52 0.46,-2.09 16.11,-41.11 17.2,-42.96 11.42,-5.69 31.71,-2.22 43.81,-9.5 11.67,-7.02 8.17,-28.23 8.17,-44.94 0,-63.63 -2.27,-41.35 -52.42,-55.56 -5.25,-16.98 -16.09,-40.09 -16.95,-43.41 29.49,-45.38 38.86,-35.73 -0.77,-75.58 -11.02,-11.08 -24.26,-28.28 -36.19,-26.88 -7.72,0.9 -30.39,20.9 -39.38,26.01 -7.49,-2.43 -20.29,-10.01 -36.78,-15.59 -6.74,-2.28 -6.9,-1.36 -8.26,-8.6 -3.51,-18.68 -0.92,-46.26 -21.05,-48.19 -8.97,-0.86 -61.98,-1.08 -67.82,0.83 -14.98,4.9 -14.57,36.12 -17.21,53.68z"/>
  <path class="fil1" d="M103.88 67.95c-9.56,9.77 -31.99,30.48 -38.54,40.67 1.81,5.08 16.64,24.16 21.21,30.12 10.31,13.48 -0.52,22.97 -6.32,35.63 -17.48,38.12 4.13,37.05 -59.77,44.02l-0.21 58.26c63.4,8.56 42.89,6.04 59.46,43.27 5.82,13.07 17.53,22.36 7.46,35.68 -4.88,6.46 -18.98,24.56 -21.45,31.08l39.95 40.54c7.12,-2.46 22.96,-16.5 29.86,-21.69 13.89,-10.46 21.35,0.19 35.57,6.8 8.75,4.07 33.07,10.09 36.05,15.82 6.56,12.64 0.8,34.17 8.93,44.51 2.23,2.04 52.42,2.97 55.61,-0.2 5.57,-7.27 4.44,-32.37 8.51,-43 2.69,-7.03 8.08,-6.9 15.96,-9.34 30.96,-9.59 40.9,-25.82 54.91,-14.94 6.47,5.02 25.11,20.1 31.09,21.97 7,-5.73 13.84,-13.09 19.78,-19.11 6.46,-6.55 15.96,-13.61 20.03,-21.36 -3.5,-8.17 -15.55,-23.1 -21.28,-31.12 -9.22,-12.91 1.89,-23.7 7.37,-35.71 4.13,-9.06 7.79,-31.78 16.59,-35.33 10.57,-4.27 30.94,-4.55 43.26,-8.31l0.05 -57.07c-10.96,-3.1 -36.08,-4.58 -43.78,-7.91 -7.03,-3.04 -9.56,-19.98 -16.38,-35.56 -5.95,-13.59 -16.34,-22.97 -7.3,-36.12 6.57,-9.55 17.67,-21.98 21.93,-30.92 -2.63,-4.41 -35.98,-38.23 -40.27,-40.48 -4.98,2.5 -9.58,6.72 -14.48,10.3 -40.85,29.84 -23.51,10.39 -70.25,-3 -8.59,-2.46 -14.53,-2.22 -17.32,-9.22 -4.26,-10.69 -3.92,-33.1 -7.91,-45.37 -7.82,-1.6 -50.16,-1.73 -57.51,0.21 -6.53,52.37 -3.22,48.68 -24.17,54.61 -34.05,9.64 -37.15,25.96 -54.86,13.96 -7.25,-4.91 -24.65,-19.57 -31.76,-21.68z"/>
  <path class="fil2" d="M221.77 106.42c-79.57,14.31 -131.85,82.35 -119.32,163.96 10.83,70.59 78.19,132.49 163.32,119.21 69.68,-10.87 133.17,-76.79 119.41,-162.81 -13.11,-81.97 -88.13,-133.9 -163.42,-120.36z"/>
  <path class="fil1" d="M217.06 317.68c17.31,6.43 17.85,-9.27 22.16,-23.43l23.87 -76.63c2.65,-7.91 13.05,-33.23 6.97,-39.38 -13.11,-13.26 -19.48,15.25 -21.78,22.86l-23.87 76.52c-3.62,11.29 -11.95,28.97 -7.34,40.06z"/>
  <path class="fil1" d="M322.56 246.31c-2.71,6.68 -21.88,23.69 -29.95,31.94 -5.42,5.55 -6.79,5.86 -4.66,15.78 12.4,7.75 16.54,-0.99 23.39,-8 47.08,-48.21 44.73,-29.67 -3.08,-79.97 -2.55,-2.68 -6.19,-7.55 -11.16,-8.06 -6.11,-0.63 -9.85,3.33 -10.19,8.21 -0.49,7.06 11.63,16.78 15.87,21.04 7.2,7.24 11.71,12.49 19.77,19.05z"/>
  <path class="fil1" d="M165.47 246.55c9.04,-8.76 15.4,-16.01 23.97,-24.3 3.27,-3.16 9.63,-8.35 10.96,-12.59 2.28,-7.31 -3.04,-13.28 -11.09,-11.51 -2.61,0.58 -47.35,41.74 -47.14,50.23 0.17,6.38 18.33,21.11 22.6,25.78 4.84,5.3 20.13,22.36 25.92,22.82 6.66,0.52 11.61,-4.68 9.81,-11.49 -0.83,-3.12 -8.73,-10.7 -11.46,-13.6 -4.33,-4.59 -20.93,-18.82 -23.56,-25.34z"/>
 </g>
</svg>
