<?xml version="1.0" encoding="UTF-8"?>
<!DOCTYPE svg PUBLIC "-//W3C//DTD SVG 1.1//EN" "http://www.w3.org/Graphics/SVG/1.1/DTD/svg11.dtd">
<!-- Creator: CorelDRAW -->
<svg xmlns="http://www.w3.org/2000/svg" xml:space="preserve" width="10.3657mm" height="12.7mm" version="1.1" style="shape-rendering:geometricPrecision; text-rendering:geometricPrecision; image-rendering:optimizeQuality; fill-rule:evenodd; clip-rule:evenodd"
viewBox="0 0 1193.7 1462.52"
 xmlns:xlink="http://www.w3.org/1999/xlink"
 xmlns:xodm="http://www.corel.com/coreldraw/odm/2003">
 <defs>
  <style type="text/css">
   <![CDATA[
    .fil1 {fill:#E31E24}
    .fil0 {fill:#2B2A29;fill-rule:nonzero}
   ]]>
  </style>
 </defs>
 <g id="Layer_x0020_1">
  <metadata id="CorelCorpID_0Corel-Layer"/>
  <path class="fil0" d="M110.31 387.68l97.24 0 0 -256.72c0,-35.95 14.74,-68.68 38.5,-92.45l-0.06 -0.06c23.72,-23.72 56.49,-38.45 92.52,-38.45 35.91,0 68.63,14.73 92.4,38.45l0.1 0.1c23.72,23.78 38.45,56.47 38.45,92.4l0 256.72 254.77 0 0 -256.72c0,-35.95 14.74,-68.68 38.5,-92.45l-0.05 -0.06c23.71,-23.72 56.47,-38.45 92.51,-38.45 35.92,0 68.63,14.73 92.4,38.45l0.1 0.1c23.73,23.78 38.45,56.47 38.45,92.4l0 256.72 97.24 0c30.37,0 57.95,12.41 77.93,32.38 19.97,19.98 32.38,47.56 32.38,77.93 0,30.36 -12.41,57.94 -32.38,77.92 -19.98,19.97 -47.56,32.38 -77.93,32.38l-34.18 0 0 362.18c0,49.33 -12.96,95.86 -35.61,136.34 -23.39,41.79 -57.29,77.15 -98.09,102.42 -12.83,7.92 -29.68,3.95 -37.59,-8.89 -7.92,-12.84 -3.95,-29.68 8.89,-37.59 32.76,-20.3 60.08,-48.85 79.02,-82.71 18.15,-32.44 28.52,-69.83 28.52,-109.57l0 -362.18 -795.02 0 0 362.18c0,39.75 10.38,77.13 28.52,109.57 18.96,33.87 46.27,62.42 79.03,82.71 12.83,7.92 16.81,24.76 8.89,37.6 -7.92,12.83 -24.76,16.81 -37.6,8.89 -40.79,-25.29 -74.69,-60.62 -98.09,-102.42 -22.65,-40.48 -35.6,-87 -35.6,-136.35l0 -362.18 -34.19 0c-30.37,0 -57.95,-12.41 -77.92,-32.38 -19.98,-19.98 -32.39,-47.56 -32.39,-77.92 0,-30.37 12.41,-57.95 32.39,-77.93 19.97,-19.97 47.55,-32.38 77.92,-32.38zm668.76 0l152.24 0 0 -256.72c0,-20.98 -8.53,-40.01 -22.27,-53.74l-0.1 -0.1c-13.73,-13.73 -32.77,-22.27 -53.74,-22.27 -20.91,0 -39.95,8.58 -53.74,22.38l-0.1 0c-13.74,13.74 -22.27,32.76 -22.27,53.74l0 256.72zm-516.68 0l152.24 0 0 -256.72c0,-20.98 -8.54,-40.01 -22.27,-53.74l-0.1 -0.1c-13.74,-13.73 -32.76,-22.27 -53.74,-22.27 -20.91,0 -39.95,8.58 -53.74,22.38l-0.1 0c-13.74,13.74 -22.27,32.76 -22.27,53.74l0 256.72zm821 54.85l-973.08 0c-15.24,0 -29.1,6.25 -39.15,16.31 -10.06,10.05 -16.32,23.92 -16.32,39.15 0,15.22 6.25,29.09 16.32,39.15 10.05,10.04 23.92,16.31 39.15,16.31l973.08 0c15.24,0 29.1,-6.26 39.15,-16.31 10.06,-10.06 16.32,-23.93 16.32,-39.15 0,-15.24 -6.25,-29.1 -16.32,-39.15 -10.05,-10.05 -23.92,-16.31 -39.15,-16.31z"/>
  <path class="fil1" d="M353.76 696.77l243.1 0 243.1 0c7.92,0 14.41,6.48 14.41,14.41l0 243.1 0 15.8 0 70.8c0,128.59 -95.52,235.95 -219.14,254.62l0 137.49c0,14.63 -12,29.54 -26.64,29.54l-23.47 0c-14.64,0 -26.65,-14.89 -26.65,-29.54l0 -137.49c-123.6,-18.67 -219.12,-126.03 -219.12,-254.62l0 -70.8 0 -15.8 0 -243.1c0,-7.92 6.48,-14.41 14.41,-14.41zm266.67 125.79c10.64,-14.68 31.2,-17.96 45.88,-7.32 14.69,10.65 17.98,31.2 7.32,45.89l-68.95 94.85 64.68 0c18.16,0 32.89,14.73 32.89,32.9 0,7.82 -2.72,14.99 -7.28,20.64l-110.66 148.28c-10.85,14.54 -31.46,17.54 -46.01,6.69 -14.54,-10.86 -17.54,-31.46 -6.68,-46.01l72.16 -96.7 -63.64 0c-6.69,-0.05 -13.45,-2.07 -19.28,-6.3 -14.69,-10.65 -17.98,-31.2 -7.32,-45.88l106.87 -147.04z"/>
 </g>
</svg>
