<?xml version="1.0" encoding="UTF-8"?>
<!DOCTYPE svg PUBLIC "-//W3C//DTD SVG 1.1//EN" "http://www.w3.org/Graphics/SVG/1.1/DTD/svg11.dtd">
<!-- Creator: CorelDRAW -->
<svg xmlns="http://www.w3.org/2000/svg" xml:space="preserve" width="28.0192mm" height="23.7279mm" version="1.1" style="shape-rendering:geometricPrecision; text-rendering:geometricPrecision; image-rendering:optimizeQuality; fill-rule:evenodd; clip-rule:evenodd"
viewBox="0 0 3057.7 2589.39"
 xmlns:xlink="http://www.w3.org/1999/xlink"
 xmlns:xodm="http://www.corel.com/coreldraw/odm/2003">
 <defs>
  <style type="text/css">
   <![CDATA[
    .fil1 {fill:#E31E24}
    .fil0 {fill:#E31E24;fill-rule:nonzero}
   ]]>
  </style>
 </defs>
 <g id="Layer_x0020_1">
  <metadata id="CorelCorpID_0Corel-Layer"/>
  <g id="_1864235675024">
   <path class="fil0" d="M332.31 2559.95l86.07 0 0 27.72 -86.07 0 0 -27.72zm8.96 -132.13l47.96 0 0 145.99 -27.72 0 0 -118.27 -20.24 0 0 -27.72zm78.95 0.02l47.96 0 0 159.84 -27.72 0 0 -132.12 -20.24 0 0 -27.72zm23.06 34.8c10.75,-14.28 25.47,-24 40.56,-28.6 11.28,-3.45 22.96,-4.1 33.55,-1.75 11.37,2.53 21.5,8.39 28.79,17.78 6.51,8.46 10.66,19.51 11.17,33.27l0.05 104.34 -27.72 0 0 -103.85c-0.32,-7.27 -2.29,-12.82 -5.36,-16.78 -3.2,-4.07 -7.74,-6.66 -12.9,-7.8 -5.94,-1.32 -12.77,-0.88 -19.58,1.2 -9.8,2.99 -19.41,9.35 -26.49,18.76l-22.09 -16.57zm217.24 -100.53l47.89 0 0.48 219.91 -11.02 2.34c-5.27,1.11 -11.86,2.34 -19.56,3.31 -7.58,0.97 -15.99,1.6 -24.7,1.5 -15.46,-0.19 -30.4,-5.41 -41.21,-15.3 -10.17,-9.31 -16.62,-22.39 -16.62,-38.94l0.05 -44.27c0.61,-16.82 6.45,-30.15 15.3,-40.05 6.66,-7.45 14.96,-12.88 23.98,-16.27 8.73,-3.31 18.22,-4.75 27.58,-4.4 6.19,0.22 12.35,1.24 18.25,3.03l-0.09 -43.13 -20.33 0 0 -27.72zm20.7 197.25l-0.22 -96.51c-5.62,-3.26 -12.38,-5.07 -19.29,-5.31 -5.73,-0.21 -11.55,0.67 -16.86,2.67 -5.04,1.9 -9.6,4.83 -13.13,8.78 -4.67,5.23 -7.8,12.57 -8.25,22.14l0.03 43.78c0,8.15 2.92,14.37 7.52,18.57 5.67,5.19 14.01,7.94 22.92,8.05 7.32,0.1 14.44,-0.45 20.9,-1.27l6.38 -0.92zm318.83 -103.92l-41.7 0c-10.61,0.83 -17.94,3.4 -22.57,6.97 -4.19,3.23 -6.06,7.53 -6.1,11.87 -0.12,13.51 13.31,16.97 26.56,20.35 5.23,1.33 10.48,2.68 15.49,4.46 9.05,3.22 17.22,7.66 23.55,13.74 7.17,6.91 11.82,15.61 12.6,26.52 0.57,7.79 -0.49,15.73 -4.18,23.06 -3.3,6.55 -8.54,12.33 -16.33,16.71 -4.79,2.7 -10.73,4.87 -18.05,6.33 -6.7,1.38 -14.54,2.11 -23.75,2.11l-40.67 0 0 -27.72 40.67 0c7.45,0 13.52,-0.55 18.39,-1.51 4.15,-0.79 7.39,-1.95 9.88,-3.35 2.59,-1.45 4.25,-3.2 5.17,-5.03 1.19,-2.37 1.48,-5.41 1.25,-8.65 -0.24,-3.44 -1.79,-6.25 -4.16,-8.53 -3.21,-3.08 -8.02,-5.57 -13.65,-7.56 -4.02,-1.41 -8.54,-2.58 -13.05,-3.72 -23.69,-6.05 -47.67,-12.2 -47.34,-47.42 0.12,-12.48 5.24,-24.61 16.82,-33.52 8.85,-6.81 21.44,-11.6 38.36,-12.77l42.8 -0.05 0 27.72zm-265.04 -27.61l47.96 0 0 93.99c0,15.8 3.04,27.84 11.52,33.88 8.37,5.97 22.61,7.9 44.85,4.55l0 -132.41 27.72 0 0 155.21 -11.1 2.27c-37.05,7.54 -61.59,4.23 -77.49,-7.1 -17.1,-12.19 -23.22,-31.87 -23.22,-56.41l0 -66.27 -20.24 0 0 -27.72zm500.2 132.12l86.07 0 0 27.72 -86.07 0 0 -27.72zm8.96 -132.13l47.96 0 0 145.99 -27.72 0 0 -118.27 -20.24 0 0 -27.72zm973.02 132.13l86.07 0 0 27.72 -86.07 0 0 -27.72zm8.96 -132.13l47.96 0 0 145.99 -27.72 0 0 -118.27 -20.24 0 0 -27.72zm-271.26 0.01l47.96 0 0 93.99c0,15.8 3.04,27.84 11.52,33.88 8.37,5.97 22.61,7.9 44.85,4.55l0 -132.41 27.72 0 0 155.21 -11.1 2.27c-37.05,7.54 -61.59,4.23 -77.49,-7.1 -17.1,-12.19 -23.22,-31.87 -23.22,-56.41l0 -66.27 -20.24 0 0 -27.72zm-253.84 27.61l-41.7 0c-10.61,0.83 -17.94,3.4 -22.57,6.97 -4.19,3.23 -6.06,7.53 -6.1,11.87 -0.12,13.51 13.31,16.97 26.56,20.35 5.23,1.33 10.48,2.68 15.49,4.46 9.05,3.22 17.22,7.66 23.55,13.74 7.17,6.91 11.82,15.61 12.6,26.52 0.57,7.79 -0.49,15.73 -4.18,23.06 -3.3,6.55 -8.54,12.33 -16.33,16.71 -4.79,2.7 -10.73,4.87 -18.05,6.33 -6.7,1.38 -14.54,2.11 -23.75,2.11l-40.67 0 0 -27.72 40.67 0c7.45,0 13.52,-0.55 18.39,-1.51 4.15,-0.79 7.39,-1.95 9.88,-3.35 2.59,-1.45 4.25,-3.2 5.17,-5.03 1.19,-2.37 1.48,-5.41 1.25,-8.65 -0.24,-3.44 -1.79,-6.25 -4.16,-8.53 -3.21,-3.08 -8.02,-5.57 -13.65,-7.56 -4.02,-1.41 -8.54,-2.58 -13.05,-3.72 -23.69,-6.05 -47.67,-12.2 -47.34,-47.42 0.12,-12.48 5.24,-24.61 16.82,-33.52 8.85,-6.81 21.44,-11.6 38.36,-12.77l42.8 -0.05 0 27.72zm1019.06 0l-41.7 0c-10.61,0.83 -17.94,3.4 -22.57,6.97 -4.19,3.23 -6.06,7.53 -6.1,11.87 -0.12,13.51 13.31,16.97 26.56,20.35 5.23,1.33 10.48,2.68 15.49,4.46 9.05,3.22 17.22,7.66 23.55,13.74 7.17,6.91 11.82,15.61 12.6,26.52 0.57,7.79 -0.49,15.73 -4.18,23.06 -3.3,6.55 -8.54,12.33 -16.33,16.71 -4.79,2.7 -10.73,4.87 -18.05,6.33 -6.7,1.38 -14.54,2.11 -23.75,2.11l-40.67 0 0 -27.72 40.67 0c7.45,0 13.52,-0.55 18.39,-1.51 4.15,-0.79 7.39,-1.95 9.88,-3.35 2.59,-1.45 4.25,-3.2 5.17,-5.03 1.19,-2.37 1.48,-5.41 1.25,-8.65 -0.24,-3.44 -1.79,-6.25 -4.16,-8.53 -3.21,-3.08 -8.02,-5.57 -13.65,-7.56 -4.02,-1.41 -8.54,-2.58 -13.05,-3.72 -23.69,-6.05 -47.67,-12.2 -47.34,-47.42 0.12,-12.48 5.24,-24.61 16.82,-33.52 8.85,-6.81 21.44,-11.6 38.36,-12.77l42.8 -0.05 0 27.72zm-263.36 -27.6l47.96 0 0 159.84 -27.72 0 0 -132.12 -20.24 0 0 -27.72zm23.06 34.8c10.75,-14.28 25.47,-24 40.56,-28.6 11.28,-3.45 22.96,-4.1 33.55,-1.75 11.37,2.53 21.5,8.39 28.79,17.78 6.51,8.46 10.66,19.51 11.17,33.27l0.05 104.34 -27.72 0 0 -103.85c-0.32,-7.27 -2.29,-12.82 -5.36,-16.78 -3.2,-4.07 -7.74,-6.66 -12.9,-7.8 -5.94,-1.32 -12.77,-0.88 -19.58,1.2 -9.8,2.99 -19.41,9.35 -26.49,18.76l-22.09 -16.57zm-1006.38 -97.55l47.89 0 0.45 222.58 -27.61 0 -0.39 -194.86 -20.33 0 0 -27.72zm403.84 0l47.89 0 0.45 222.58 -27.61 0 -0.39 -194.86 -20.33 0 0 -27.72zm-81.41 194.75c7.88,0 15.05,-3.24 20.23,-8.42 5.18,-5.18 8.41,-12.35 8.41,-20.21l0 -47.13c0,-7.86 -3.23,-15.03 -8.41,-20.21 -5.18,-5.18 -12.35,-8.42 -20.21,-8.42 -7.91,0 -15.08,3.22 -20.23,8.37 -5.18,5.24 -8.42,12.41 -8.42,20.27l0 47.13c0,7.89 3.22,15.06 8.37,20.21 5.21,5.21 12.38,8.42 20.27,8.42zm0.02 27.72c-15.46,0 -29.56,-6.34 -39.78,-16.54 -10.26,-10.27 -16.6,-24.37 -16.6,-39.81l0 -47.13c0,-15.51 6.34,-29.61 16.54,-39.81 10.24,-10.19 24.35,-16.54 39.81,-16.54 15.53,0 29.63,6.34 39.83,16.54 10.19,10.19 16.53,24.3 16.53,39.81l0 47.13c0,15.51 -6.34,29.62 -16.53,39.81 -10.2,10.2 -24.3,16.54 -39.81,16.54zm580.7 -27.72c7.88,0 15.05,-3.24 20.23,-8.42 5.18,-5.18 8.41,-12.35 8.41,-20.21l0 -47.13c0,-7.86 -3.23,-15.03 -8.41,-20.21 -5.18,-5.18 -12.35,-8.42 -20.21,-8.42 -7.91,0 -15.08,3.22 -20.23,8.37 -5.18,5.24 -8.42,12.41 -8.42,20.27l0 47.13c0,7.89 3.22,15.06 8.37,20.21 5.21,5.21 12.38,8.42 20.27,8.42zm0.02 27.72c-15.46,0 -29.56,-6.34 -39.78,-16.54 -10.26,-10.27 -16.6,-24.37 -16.6,-39.81l0 -47.13c0,-15.51 6.34,-29.61 16.54,-39.81 10.24,-10.19 24.35,-16.54 39.81,-16.54 15.53,0 29.63,6.34 39.83,16.54 10.19,10.19 16.53,24.3 16.53,39.81l0 47.13c0,15.51 -6.34,29.62 -16.53,39.81 -10.2,10.2 -24.3,16.54 -39.81,16.54zm-211.52 -207.74l0 140.21c0,12.33 1.62,22.86 7.15,29.43 5.55,6.55 16.02,10.5 34.28,10.48l0 27.61c-27.57,0.03 -44.78,-7.63 -55.44,-20.32 -10.6,-12.68 -13.71,-29.04 -13.71,-47.2l0 -140.21 27.72 0zm-54.46 46.24l81.18 0 0 27.72 -81.18 0 0 -27.72zm-1036.11 -46.24l0 140.21c0,12.33 1.62,22.86 7.15,29.43 5.55,6.55 16.02,10.5 34.28,10.48l0 27.61c-27.57,0.03 -44.78,-7.63 -55.44,-20.32 -10.6,-12.68 -13.71,-29.04 -13.71,-47.2l0 -140.21 27.72 0zm-54.46 46.24l81.18 0 0 27.72 -81.18 0 0 -27.72zm106.26 133.89l86.07 0 0 27.72 -86.07 0 0 -27.72zm8.96 -132.13l47.96 0 0 145.99 -27.72 0 0 -118.27 -20.24 0 0 -27.72zm93.52 27.74c-15.31,0 -27.99,2.67 -36.29,7.94 -5.84,3.71 -9.28,9.07 -9.28,15.97l-27.72 0c0,-17.34 8.18,-30.48 22.15,-39.36 12.81,-8.14 30.63,-12.27 51.13,-12.27l0 27.72zm192.01 132.11l0 -95.02c0,-4.99 -0.48,-9.36 -1.42,-13.04 -1.83,-7.01 -5.36,-12.39 -10.52,-15.87 -5.78,-3.91 -13.98,-5.97 -24.51,-5.97 -8.73,0 -18.88,1.43 -30.37,4.35l-6.83 -26.85c13.8,-3.51 26.23,-5.23 37.2,-5.23 16.21,0 29.58,3.71 39.98,10.73 11,7.43 18.33,18.26 21.84,32 1.54,6.24 2.35,12.89 2.35,19.87l0 95.02 -27.72 0zm11.19 0.02l-48.61 0c-13.03,0 -24.88,-5.34 -33.44,-13.89 -8.56,-8.56 -13.89,-20.41 -13.89,-33.44 0,-13.03 5.34,-24.89 13.89,-33.45 8.56,-8.56 20.41,-13.89 33.44,-13.89l48.61 0 0 27.72 -48.61 0c-5.37,0 -10.29,2.23 -13.84,5.77 -3.55,3.55 -5.77,8.47 -5.77,13.84 0,5.38 2.23,10.3 5.77,13.85 3.55,3.55 8.47,5.77 13.84,5.77l48.61 0 0 27.72z"/>
   <path class="fil1" d="M375.35 2360.4c10.74,0 19.42,8.69 19.42,19.42 0,10.74 -8.69,19.42 -19.42,19.42 -10.74,0 -19.42,-8.69 -19.42,-19.42 0,-10.74 8.69,-19.42 19.42,-19.42z"/>
   <path class="fil1" d="M1278.26 2360.4c10.74,0 19.42,8.69 19.42,19.42 0,10.74 -8.69,19.42 -19.42,19.42 -10.74,0 -19.42,-8.69 -19.42,-19.42 0,-10.74 8.69,-19.42 19.42,-19.42z"/>
   <path class="fil1" d="M2260.24 2360.4c10.74,0 19.42,8.69 19.42,19.42 0,10.74 -8.69,19.42 -19.42,19.42 -10.74,0 -19.42,-8.69 -19.42,-19.42 0,-10.74 8.69,-19.42 19.42,-19.42z"/>
  </g>
  <path class="fil0" d="M166.22 1746.65c21.95,0 43.16,4.25 63.56,12.72 10.14,4.21 19.7,9.29 28.59,15.19 8.88,5.9 17.18,12.69 24.85,20.32 7.65,7.61 14.48,15.89 20.44,24.77 6.01,8.98 11.14,18.53 15.37,28.59 4.21,10.06 7.42,20.47 9.59,31.2 2.16,10.75 3.25,21.53 3.25,32.33l0 159.22 -54.95 0 0 -36.5 -5.02 4.28c-9.59,7.82 -20.18,14.67 -31.69,20.49 -11.67,5.89 -23.66,10.31 -35.93,13.23 -12.34,2.94 -25.05,4.41 -38.06,4.41 -10.98,0 -21.8,-1.07 -32.4,-3.19 -10.53,-2.1 -20.93,-5.28 -31.17,-9.53 -10.15,-4.21 -19.72,-9.32 -28.67,-15.27 -8.93,-5.95 -17.3,-12.8 -25.07,-20.52 -7.79,-7.74 -14.68,-16.05 -20.65,-24.87 -5.93,-8.78 -11.08,-18.3 -15.39,-28.49 -4.27,-10.07 -7.5,-20.43 -9.64,-31 -2.16,-10.69 -3.25,-21.45 -3.25,-32.26 0,-10.8 1.09,-21.57 3.25,-32.26 2.14,-10.57 5.37,-20.93 9.64,-31 4.32,-10.19 9.46,-19.72 15.39,-28.5 5.97,-8.83 12.86,-17.13 20.65,-24.87 7.77,-7.72 16.14,-14.57 25.07,-20.52 8.95,-5.95 18.52,-11.04 28.67,-15.26 10.24,-4.25 20.64,-7.44 31.17,-9.54 10.6,-2.12 21.42,-3.19 32.4,-3.19zm0 52.64c-7.49,0 -14.75,0.72 -21.74,2.15 -7.06,1.44 -14.07,3.64 -20.95,6.57 -6.83,2.9 -13.32,6.43 -19.38,10.51 -6.08,4.09 -11.69,8.73 -16.77,13.85 -10.32,10.4 -18.42,22.52 -24.27,36.35 -2.92,6.95 -5.13,14.01 -6.58,21.14 -1.43,7.02 -2.15,14.34 -2.15,21.92 0,7.58 0.72,14.89 2.15,21.86 1.43,7 3.63,13.96 6.58,20.83 2.94,6.92 6.45,13.39 10.48,19.42 4.04,6.06 8.69,11.77 13.89,17.1 5.19,5.3 10.76,10 16.66,14.01 6.03,4.08 12.51,7.61 19.39,10.53 6.89,2.92 13.89,5.13 20.95,6.57 6.98,1.43 14.25,2.15 21.74,2.15 5.52,0 11.16,-0.48 16.86,-1.43 5.87,-0.96 12,-2.46 18.38,-4.46 5.99,-1.89 12.1,-4.65 18.27,-8.23 6.42,-3.73 12.87,-8.33 19.27,-13.73 6.23,-5.25 11.79,-11.16 16.59,-17.69 4.8,-6.53 8.83,-13.61 12.04,-21.2 3.28,-7.75 5.76,-15.52 7.42,-23.22 1.62,-7.52 2.43,-15.03 2.43,-22.51 0,-14.98 -2.91,-29.36 -8.71,-43.06 -5.86,-13.83 -13.91,-25.99 -24.11,-36.44 -5.1,-5.22 -10.6,-9.84 -16.46,-13.83 -5.88,-3.99 -12.33,-7.49 -19.29,-10.44 -6.9,-2.92 -13.9,-5.13 -20.96,-6.57 -6.96,-1.43 -14.23,-2.15 -21.73,-2.15zm547.43 -40.55l0 42.17 -11.56 0c-5.53,0 -11.17,0.48 -16.87,1.43 -5.88,0.96 -12.02,2.48 -18.38,4.46 -5.97,1.88 -12.06,4.61 -18.24,8.14 -6.29,3.6 -12.66,8.08 -19.06,13.37 -6.22,5.15 -11.68,10.89 -16.34,17.19 -4.74,6.44 -8.75,13.48 -11.96,21.07 -3.28,7.75 -5.77,15.51 -7.42,23.21 -1.63,7.56 -2.43,15.08 -2.43,22.54l0 158.68 -55.52 0 0 -158.68c0,-16.47 2.84,-33.9 8.5,-52.25 2.88,-9.36 7.06,-18.77 12.47,-28.18 5.29,-9.2 11.84,-18.43 19.59,-27.65 7.93,-9.43 16.74,-17.72 26.37,-24.79 9.64,-7.06 20.22,-13.05 31.71,-17.89 22.71,-9.57 45.27,-14.37 67.58,-14.37l11.56 0 0 11.56zm496.05 -105.24l0 258.82c0,10.98 -1.09,21.89 -3.26,32.67 -2.14,10.65 -5.36,21.04 -9.63,31.12 -4.25,10.05 -9.42,19.54 -15.44,28.43 -6.01,8.88 -12.91,17.14 -20.64,24.73 -7.67,7.53 -16.03,14.3 -25.03,20.23 -8.94,5.94 -18.53,11.01 -28.66,15.22 -10.24,4.25 -20.63,7.44 -31.16,9.54 -10.66,2.11 -21.45,3.18 -32.4,3.18 -10.98,0 -21.81,-1.07 -32.41,-3.19 -10.53,-2.1 -20.92,-5.28 -31.15,-9.53 -10.15,-4.21 -19.7,-9.29 -28.6,-15.2 -8.88,-5.88 -17.18,-12.68 -24.85,-20.31 -7.65,-7.61 -14.47,-15.88 -20.43,-24.78 -6.01,-8.96 -11.15,-18.52 -15.38,-28.59 -4.21,-10.05 -7.43,-20.45 -9.59,-31.19 -2.16,-10.74 -3.25,-21.53 -3.25,-32.33 0,-10.8 1.09,-21.57 3.25,-32.26 2.14,-10.57 5.37,-20.93 9.64,-31 4.28,-10.11 9.4,-19.61 15.33,-28.45 5.94,-8.87 12.75,-17.18 20.39,-24.88 7.64,-7.69 15.94,-14.55 24.86,-20.52 8.95,-5.98 18.53,-11.11 28.64,-15.3 10.21,-4.25 20.63,-7.44 31.16,-9.54 10.6,-2.12 21.42,-3.19 32.4,-3.19 27.04,0 52.95,7.16 77.7,21.45 12.23,7.06 22.91,14.91 31.95,23.51l1.05 1 0 -151.21 55.51 0 0 11.56zm-166.21 146.33c-7.5,0 -14.75,0.72 -21.72,2.15 -7.07,1.45 -14.09,3.66 -20.96,6.57 -6.98,2.97 -13.44,6.46 -19.33,10.45 -5.84,3.97 -11.35,8.6 -16.45,13.82 -5.07,5.19 -9.65,10.86 -13.65,16.93 -4.05,6.13 -7.54,12.66 -10.44,19.51 -2.91,6.9 -5.13,13.95 -6.57,21.08 -1.43,7.06 -2.15,14.38 -2.15,21.98 0,7.61 0.72,14.93 2.13,21.92 1.46,7.13 3.67,14.18 6.59,21.08 2.9,6.9 6.39,13.42 10.44,19.56 4.01,6.07 8.58,11.73 13.65,16.93 5.1,5.22 10.6,9.85 16.45,13.83 5.94,4.03 12.38,7.52 19.28,10.44 6.93,2.94 13.94,5.13 21.01,6.58 6.95,1.42 14.21,2.14 21.72,2.14 10.99,0 22.82,-2.05 35.42,-6.12 6.13,-1.98 12.34,-4.8 18.54,-8.44 6.56,-3.87 13.04,-8.49 19.38,-13.83 6.23,-5.26 11.79,-11.17 16.58,-17.68 4.79,-6.43 8.81,-13.52 12.06,-21.21 3.26,-7.73 5.75,-15.46 7.42,-23.14 1.62,-7.44 2.43,-14.81 2.43,-22.07 0,-7.58 -0.72,-14.91 -2.15,-21.92 -1.44,-7.18 -3.66,-14.24 -6.57,-21.14 -2.91,-6.89 -6.41,-13.38 -10.47,-19.46 -4.06,-6.06 -8.68,-11.72 -13.82,-16.89 -5.09,-5.11 -10.68,-9.76 -16.76,-13.85 -6.07,-4.09 -12.54,-7.6 -19.38,-10.51 -6.89,-2.92 -13.91,-5.13 -20.99,-6.57 -6.96,-1.43 -14.22,-2.15 -21.71,-2.15zm530.76 -52.64c21.95,0 43.16,4.25 63.56,12.72 10.14,4.21 19.7,9.29 28.59,15.19 8.88,5.9 17.18,12.69 24.85,20.32 7.63,7.58 14.46,15.82 20.42,24.68 5.9,8.73 11.02,18.22 15.34,28.42 4.28,10.11 7.5,20.44 9.64,30.96 2.16,10.73 3.25,21.5 3.25,32.3l0 11.56 -276.38 0c0.35,3.56 0.85,7.07 1.51,10.51 1.39,7.27 3.47,14.36 6.2,21.2 2.72,6.83 6.08,13.36 10.03,19.51 3.91,6.08 8.41,11.77 13.46,17.02 5.06,5.27 10.59,9.99 16.49,14.08 5.96,4.11 12.4,7.7 19.32,10.73 6.84,2.99 13.88,5.24 21.06,6.73 7.06,1.46 14.44,2.2 22.11,2.2 4.77,0 9.87,-0.46 15.25,-1.35 5.63,-0.95 11.71,-2.39 18.13,-4.3 6.08,-1.82 12.18,-4.44 18.2,-7.81 6.15,-3.46 12.29,-7.75 18.34,-12.81 6.06,-5.06 11.48,-10.54 16.19,-16.37 4.73,-5.85 8.82,-12.1 12.24,-18.73l3.25 -6.27 59.22 0 -6.29 15.8c-6.12,15.43 -14.24,29.42 -24.31,41.91 -10.08,12.5 -22.16,23.57 -36.18,33.16 -14.01,9.59 -28.86,16.82 -44.48,21.63 -15.67,4.83 -32.02,7.26 -49.01,7.26 -11.13,0 -22.09,-1.07 -32.79,-3.19 -10.68,-2.11 -21.14,-5.28 -31.34,-9.53 -10.15,-4.21 -19.7,-9.3 -28.6,-15.21 -8.87,-5.88 -17.17,-12.66 -24.84,-20.3 -7.66,-7.61 -14.49,-15.9 -20.45,-24.79 -5.96,-8.9 -11.1,-18.46 -15.34,-28.59 -4.22,-10.04 -7.44,-20.44 -9.6,-31.18 -2.16,-10.74 -3.25,-21.53 -3.25,-32.33 0,-10.8 1.09,-21.59 3.25,-32.33 2.16,-10.73 5.38,-21.14 9.59,-31.2 4.26,-10.12 9.41,-19.66 15.37,-28.57 5.96,-8.9 12.79,-17.19 20.44,-24.79 7.67,-7.63 15.97,-14.42 24.85,-20.32 8.89,-5.9 18.45,-10.98 28.59,-15.19 10.19,-4.23 20.67,-7.43 31.35,-9.54 10.71,-2.12 21.67,-3.19 32.78,-3.19zm0 52.64c-25.42,0 -48.26,8.01 -68.49,24.03 -16.14,12.83 -27.84,28.26 -35.06,46.29l206.32 0 -1.1 -2.59c-2.34,-5.38 -5.28,-10.78 -8.74,-16.14 -3.32,-5.16 -7.05,-10.04 -11.14,-14.6 -4.05,-4.51 -8.54,-8.76 -13.42,-12.71 -4.78,-3.92 -9.84,-7.36 -15.15,-10.31 -5.27,-2.95 -10.97,-5.52 -17.01,-7.67 -5.84,-2.08 -11.84,-3.68 -17.93,-4.74 -5.95,-1.03 -12.05,-1.56 -18.27,-1.56zm413.62 271.17l-43.97 0 0 -429.06 55.52 0 0 429.06 -11.56 0zm381.79 -323.82c21.96,0 43.17,4.26 63.55,12.72 10.15,4.2 19.71,9.29 28.59,15.19 8.88,5.9 17.19,12.69 24.86,20.32 7.63,7.58 14.46,15.82 20.42,24.68 5.9,8.73 11.02,18.22 15.34,28.42 4.25,10.07 7.48,20.41 9.61,30.96 2.18,10.68 3.27,21.47 3.27,32.3l0 11.56 -276.38 0c0.35,3.56 0.85,7.07 1.51,10.51 1.39,7.27 3.46,14.36 6.19,21.2 2.72,6.83 6.08,13.36 10.03,19.51 3.91,6.08 8.41,11.77 13.46,17.02 5.06,5.27 10.59,9.99 16.51,14.09 5.94,4.11 12.39,7.7 19.3,10.72 6.85,2.99 13.88,5.25 21.01,6.72 7.13,1.47 14.51,2.22 22.16,2.22 4.78,0 9.87,-0.46 15.22,-1.35 5.59,-0.94 11.65,-2.38 18.15,-4.31 6.09,-1.81 12.18,-4.43 18.2,-7.81 6.17,-3.45 12.3,-7.74 18.34,-12.8 6.06,-5.06 11.48,-10.54 16.19,-16.37 4.73,-5.85 8.82,-12.1 12.24,-18.73l3.25 -6.27 59.22 0 -6.29 15.8c-6.12,15.43 -14.24,29.42 -24.31,41.91 -10.08,12.51 -22.15,23.57 -36.19,33.16 -14.01,9.58 -28.84,16.82 -44.47,21.63 -15.67,4.83 -32.02,7.26 -49.01,7.26 -11.13,0 -22.05,-1.06 -32.78,-3.18 -10.68,-2.11 -21.16,-5.3 -31.35,-9.54 -10.15,-4.21 -19.7,-9.29 -28.59,-15.2 -8.88,-5.88 -17.19,-12.68 -24.86,-20.31 -7.64,-7.61 -14.48,-15.89 -20.44,-24.79 -5.96,-8.92 -11.1,-18.46 -15.34,-28.59 -4.22,-10.04 -7.44,-20.44 -9.6,-31.18 -2.16,-10.74 -3.25,-21.53 -3.25,-32.33 0,-10.8 1.09,-21.59 3.25,-32.33 2.16,-10.73 5.38,-21.14 9.59,-31.2 4.26,-10.11 9.39,-19.65 15.35,-28.57 5.96,-8.89 12.8,-17.19 20.44,-24.79 7.67,-7.63 15.98,-14.42 24.86,-20.32 8.89,-5.9 18.44,-10.98 28.59,-15.19 20.4,-8.48 41.8,-12.72 64.13,-12.72zm0 52.64c-25.43,0 -48.28,8.02 -68.51,24.05 -10.13,8.02 -18.54,17.14 -25.19,27.3 -3.91,5.96 -7.2,12.29 -9.88,18.97l206.38 0 -1.1 -2.59c-2.51,-5.55 -5.43,-10.95 -8.78,-16.14 -3.33,-5.16 -7.06,-10.05 -11.15,-14.6 -4.05,-4.51 -8.54,-8.76 -13.42,-12.71 -4.78,-3.92 -9.84,-7.37 -15.15,-10.32 -5.37,-2.98 -11.04,-5.54 -17,-7.66 -5.86,-2.1 -11.85,-3.68 -17.93,-4.74 -5.95,-1.03 -12.05,-1.56 -18.27,-1.56zm527.34 -52.64c21.15,0 42.39,4.32 63.71,12.94 10.71,4.31 20.73,9.68 30.06,16.09 9.33,6.38 17.94,13.8 25.78,22.15 7.75,8.27 14.51,16.86 20.25,25.73 5.78,9 10.55,18.25 14.22,27.69l6.11 15.7 -58.44 0 -3.28 -6.19c-2.24,-4.22 -5.02,-8.62 -8.27,-13.1 -3.26,-4.47 -7.28,-9.36 -12.02,-14.62 -4.25,-4.73 -9.2,-9.1 -14.82,-13.05 -5.72,-4.03 -12.22,-7.7 -19.47,-11 -7.21,-3.28 -14.46,-5.74 -21.65,-7.32 -7.15,-1.58 -14.55,-2.38 -22.19,-2.38 -7.5,0 -14.74,0.72 -21.72,2.15 -7.07,1.44 -14.09,3.64 -20.97,6.57 -6.84,2.91 -13.34,6.44 -19.39,10.52 -6.08,4.1 -11.68,8.73 -16.76,13.84 -10.32,10.4 -18.42,22.52 -24.27,36.35 -2.92,6.95 -5.13,14.01 -6.58,21.14 -1.43,7.02 -2.15,14.34 -2.15,21.92 0,7.58 0.72,14.92 2.15,21.92 1.45,7.13 3.66,14.18 6.58,21.08 2.9,6.92 6.42,13.47 10.51,19.63 4.05,6.1 8.7,11.84 13.86,17.12 5.13,5.25 10.72,9.93 16.71,14.01 5.98,4.07 12.45,7.6 19.35,10.53 6.88,2.91 13.89,5.12 20.96,6.57 6.97,1.42 14.23,2.14 21.73,2.14 4.91,0 10.13,-0.48 15.61,-1.42 5.78,-0.99 11.88,-2.5 18.26,-4.47 6.01,-1.87 12.1,-4.57 18.21,-8.08 6.1,-3.47 12.24,-7.84 18.38,-13.06 6.1,-5.18 11.51,-10.76 16.18,-16.65 4.71,-6 8.81,-12.41 12.24,-19.21l3.22 -6.37 58.59 0 -6.09 15.7c-6.11,15.8 -14.26,30.1 -24.39,42.82 -10.13,12.74 -22.29,24 -36.44,33.7 -14.1,9.67 -29.02,16.96 -44.69,21.83 -15.71,4.88 -32.08,7.32 -49.09,7.32 -11.13,0 -22.09,-1.07 -32.79,-3.19 -10.68,-2.11 -21.14,-5.28 -31.34,-9.53 -10.14,-4.21 -19.69,-9.29 -28.59,-15.2 -8.88,-5.88 -17.19,-12.68 -24.86,-20.31 -7.64,-7.61 -14.48,-15.89 -20.44,-24.79 -5.96,-8.92 -11.1,-18.46 -15.34,-28.59 -4.22,-10.04 -7.44,-20.44 -9.6,-31.18 -2.16,-10.74 -3.25,-21.53 -3.25,-32.33 0,-10.8 1.09,-21.59 3.25,-32.33 2.16,-10.73 5.38,-21.14 9.59,-31.2 4.26,-10.11 9.39,-19.65 15.35,-28.57 5.96,-8.89 12.8,-17.19 20.44,-24.79 7.68,-7.63 15.98,-14.42 24.86,-20.32 8.89,-5.9 18.45,-10.99 28.59,-15.19 10.19,-4.23 20.67,-7.43 31.35,-9.54 10.71,-2.12 21.67,-3.19 32.78,-3.19z"/>
  <path class="fil1" d="M1414.2 315.49c44.96,-105.17 89.92,-210.32 134.88,-315.49 200.41,403.12 400.84,806.24 601.25,1209.36 0,57.15 0,114.31 0,171.46 -416.07,0 -832.16,0 -1248.23,0 0,-57.15 0,-114.31 0,-171.46 101.77,-76.94 182.51,-187.5 253.77,-313.2 69.33,123.46 153.18,232.41 265.19,313.2 146.31,0 292.63,0 438.94,0 -148.6,-297.95 -297.2,-595.92 -445.8,-893.87z"/>
 </g>
</svg>
