<?xml version="1.0" encoding="UTF-8"?>
<!DOCTYPE svg PUBLIC "-//W3C//DTD SVG 1.1//EN" "http://www.w3.org/Graphics/SVG/1.1/DTD/svg11.dtd">
<!-- Creator: CorelDRAW -->
<svg xmlns="http://www.w3.org/2000/svg" xml:space="preserve" width="38.7335mm" height="8.9239mm" version="1.1" style="shape-rendering:geometricPrecision; text-rendering:geometricPrecision; image-rendering:optimizeQuality; fill-rule:evenodd; clip-rule:evenodd"
viewBox="0 0 3346.94 771.11"
 xmlns:xlink="http://www.w3.org/1999/xlink"
 xmlns:xodm="http://www.corel.com/coreldraw/odm/2003">
 <defs>
  <style type="text/css">
   <![CDATA[
    .fil2 {fill:#E31E24}
    .fil1 {fill:#E31E24}
    .fil0 {fill:#E31E24;fill-rule:nonzero}
   ]]>
  </style>
 </defs>
 <g id="Layer_x0020_1">
  <metadata id="CorelCorpID_0Corel-Layer"/>
  <g id="_1864235675024">
   <path class="fil0" d="M1967.77 560.05l49.55 0 0 15.96 -49.55 0 0 -15.96zm5.16 -76.06l27.62 0 0 84.04 -15.96 0 0 -68.09 -11.66 0 0 -15.95zm45.45 0.01l27.62 0 0 92.02 -15.96 0 0 -76.06 -11.66 0 0 -15.96zm13.27 20.03c6.2,-8.22 14.66,-13.81 23.36,-16.46 6.5,-1.99 13.21,-2.36 19.31,-1 6.54,1.45 12.37,4.83 16.57,10.23 3.75,4.86 6.14,11.23 6.43,19.16l0.03 60.06 -15.96 0 0 -59.79c-0.18,-4.18 -1.32,-7.38 -3.08,-9.66 -1.84,-2.34 -4.45,-3.83 -7.42,-4.49 -3.42,-0.76 -7.35,-0.51 -11.28,0.69 -5.63,1.73 -11.17,5.38 -15.24,10.8l-12.72 -9.54zm125.06 -57.88l27.56 0 0.28 126.6 -6.34 1.34c-3.03,0.64 -6.83,1.35 -11.26,1.9 -4.36,0.56 -9.2,0.92 -14.21,0.86 -8.9,-0.1 -17.5,-3.12 -23.72,-8.81 -5.86,-5.36 -9.57,-12.89 -9.57,-22.41l0.03 -25.49c0.35,-9.68 3.72,-17.35 8.81,-23.05 3.84,-4.29 8.62,-7.41 13.81,-9.37 5.02,-1.9 10.49,-2.73 15.87,-2.53 3.56,0.13 7.11,0.72 10.5,1.75l-0.04 -24.83 -11.71 0 0 -15.96zm11.92 113.55l-0.12 -55.55c-3.24,-1.88 -7.13,-2.93 -11.11,-3.07 -3.29,-0.11 -6.64,0.39 -9.7,1.55 -2.9,1.09 -5.53,2.78 -7.55,5.05 -2.7,3.01 -4.49,7.23 -4.75,12.75l0.02 25.21c0,4.69 1.68,8.27 4.33,10.69 3.27,2.99 8.07,4.57 13.19,4.64 4.22,0.05 8.31,-0.26 12.03,-0.73l3.67 -0.53zm183.53 -59.81l-24 0c-6.1,0.48 -10.33,1.95 -12.99,4.01 -2.41,1.86 -3.49,4.34 -3.52,6.83 -0.07,7.78 7.66,9.77 15.29,11.72 3.01,0.77 6.03,1.55 8.91,2.57 5.21,1.86 9.92,4.42 13.56,7.92 4.13,3.97 6.81,8.98 7.26,15.26 0.33,4.48 -0.29,9.06 -2.4,13.28 -1.9,3.77 -4.93,7.09 -9.4,9.62 -2.76,1.55 -6.18,2.8 -10.39,3.64 -3.86,0.79 -8.37,1.22 -13.67,1.22l-23.42 0 0 -15.96 23.42 0c4.29,0 7.78,-0.31 10.59,-0.86 2.38,-0.46 4.25,-1.12 5.69,-1.94 1.49,-0.83 2.44,-1.84 2.97,-2.89 0.68,-1.36 0.86,-3.11 0.73,-4.98 -0.14,-1.98 -1.03,-3.6 -2.39,-4.92 -1.85,-1.77 -4.62,-3.21 -7.86,-4.36 -2.31,-0.8 -4.92,-1.48 -7.51,-2.13 -13.64,-3.48 -27.44,-7.03 -27.25,-27.3 0.07,-7.19 3.02,-14.17 9.68,-19.3 5.1,-3.91 12.35,-6.68 22.09,-7.34l24.64 -0.03 0 15.96zm-152.56 -15.9l27.61 0 0 54.11c0,9.1 1.75,16.03 6.64,19.5 4.81,3.44 13.01,4.55 25.82,2.63l0 -76.22 15.95 0 0 89.35 -6.39 1.3c-21.33,4.35 -35.45,2.44 -44.61,-4.09 -9.84,-7.02 -13.37,-18.34 -13.37,-32.47l0 -38.15 -11.65 0 0 -15.96zm287.94 76.06l49.55 0 0 15.96 -49.55 0 0 -15.96zm5.15 -76.06l27.62 0 0 84.04 -15.96 0 0 -68.09 -11.66 0 0 -15.95zm560.13 76.06l49.55 0 0 15.96 -49.55 0 0 -15.96zm5.16 -76.06l27.61 0 0 84.04 -15.95 0 0 -68.09 -11.66 0 0 -15.95zm-156.15 0l27.61 0 0 54.11c0,9.1 1.75,16.03 6.64,19.5 4.81,3.44 13.01,4.55 25.82,2.63l0 -76.22 15.95 0 0 89.35 -6.39 1.3c-21.33,4.35 -35.45,2.44 -44.6,-4.09 -9.85,-7.02 -13.38,-18.34 -13.38,-32.47l0 -38.15 -11.65 0 0 -15.96zm-146.13 15.9l-24 0c-6.1,0.48 -10.33,1.95 -12.99,4.01 -2.41,1.86 -3.48,4.34 -3.51,6.83 -0.07,7.78 7.66,9.77 15.29,11.72 3.01,0.77 6.03,1.55 8.92,2.57 5.21,1.86 9.91,4.42 13.56,7.92 4.12,3.97 6.8,8.98 7.25,15.26 0.33,4.48 -0.28,9.06 -2.4,13.28 -1.9,3.77 -4.92,7.09 -9.4,9.62 -2.76,1.55 -6.17,2.8 -10.39,3.64 -3.86,0.79 -8.37,1.22 -13.67,1.22l-23.42 0 0 -15.96 23.42 0c4.29,0 7.79,-0.31 10.59,-0.86 2.38,-0.46 4.25,-1.12 5.69,-1.94 1.49,-0.83 2.45,-1.84 2.97,-2.89 0.69,-1.36 0.86,-3.11 0.73,-4.98 -0.14,-1.98 -1.03,-3.6 -2.39,-4.92 -1.85,-1.77 -4.61,-3.21 -7.85,-4.36 -2.32,-0.8 -4.93,-1.48 -7.52,-2.13 -13.64,-3.48 -27.44,-7.03 -27.25,-27.3 0.07,-7.19 3.02,-14.17 9.69,-19.3 5.09,-3.91 12.34,-6.68 22.08,-7.34l24.64 -0.03 0 15.96zm586.63 0l-24 0c-6.11,0.48 -10.33,1.95 -13,4.01 -2.41,1.86 -3.48,4.34 -3.51,6.83 -0.07,7.78 7.66,9.77 15.29,11.72 3.01,0.77 6.03,1.55 8.91,2.57 5.21,1.86 9.92,4.42 13.56,7.92 4.13,3.97 6.81,8.98 7.26,15.26 0.33,4.48 -0.29,9.06 -2.41,13.28 -1.89,3.77 -4.92,7.09 -9.39,9.62 -2.76,1.55 -6.18,2.8 -10.4,3.64 -3.85,0.79 -8.36,1.22 -13.67,1.22l-23.41 0 0 -15.96 23.41 0c4.29,0 7.79,-0.31 10.59,-0.86 2.39,-0.46 4.26,-1.12 5.69,-1.94 1.49,-0.83 2.45,-1.84 2.98,-2.89 0.68,-1.36 0.86,-3.11 0.73,-4.98 -0.14,-1.98 -1.04,-3.6 -2.39,-4.92 -1.85,-1.77 -4.62,-3.21 -7.86,-4.36 -2.32,-0.8 -4.92,-1.48 -7.51,-2.13 -13.64,-3.48 -27.44,-7.03 -27.25,-27.3 0.07,-7.19 3.02,-14.17 9.68,-19.3 5.1,-3.91 12.35,-6.68 22.09,-7.34l24.64 -0.03 0 15.96zm-151.61 -15.89l27.61 0 0 92.02 -15.96 0 0 -76.06 -11.65 0 0 -15.96zm13.27 20.03c6.19,-8.22 14.66,-13.81 23.35,-16.46 6.5,-1.99 13.22,-2.36 19.31,-1 6.55,1.45 12.37,4.83 16.57,10.23 3.75,4.86 6.14,11.23 6.43,19.16l0.03 60.06 -15.95 0 0 -59.79c-0.19,-4.18 -1.32,-7.38 -3.08,-9.66 -1.84,-2.34 -4.46,-3.83 -7.43,-4.49 -3.41,-0.76 -7.34,-0.51 -11.27,0.69 -5.64,1.73 -11.17,5.38 -15.25,10.8l-12.71 -9.54zm-579.33 -56.15l27.56 0 0.26 128.13 -15.89 0 -0.22 -112.18 -11.71 0 0 -15.95zm232.48 0l27.56 0 0.25 128.13 -15.89 0 -0.22 -112.18 -11.7 0 0 -15.95zm-46.87 112.1c4.54,0 8.67,-1.87 11.65,-4.85 2.98,-2.98 4.84,-7.11 4.84,-11.63l0 -27.13c0,-4.53 -1.86,-8.66 -4.84,-11.64 -2.98,-2.98 -7.11,-4.85 -11.64,-4.85 -4.55,0 -8.68,1.85 -11.64,4.82 -2.99,3.01 -4.86,7.14 -4.86,11.67l0 27.13c0,4.54 1.86,8.67 4.82,11.63 3,3 7.12,4.85 11.67,4.85zm0.01 15.97c-8.9,0 -17.01,-3.66 -22.9,-9.53 -5.9,-5.91 -9.55,-14.02 -9.55,-22.92l0 -27.13c0,-8.93 3.65,-17.04 9.52,-22.92 5.89,-5.87 14.02,-9.52 22.92,-9.52 8.94,0 17.06,3.65 22.93,9.52 5.87,5.87 9.51,13.99 9.51,22.92l0 27.13c0,8.93 -3.65,17.05 -9.51,22.92 -5.88,5.88 -13.99,9.53 -22.92,9.53zm334.29 -15.97c4.54,0 8.67,-1.87 11.65,-4.85 2.98,-2.98 4.85,-7.11 4.85,-11.63l0 -27.13c0,-4.53 -1.87,-8.66 -4.85,-11.64 -2.98,-2.98 -7.11,-4.85 -11.63,-4.85 -4.55,0 -8.68,1.85 -11.65,4.82 -2.99,3.01 -4.86,7.14 -4.86,11.67l0 27.13c0,4.54 1.86,8.67 4.82,11.63 3,3 7.13,4.85 11.67,4.85zm0.01 15.97c-8.9,0 -17.02,-3.66 -22.9,-9.53 -5.9,-5.91 -9.56,-14.02 -9.56,-22.92l0 -27.13c0,-8.93 3.66,-17.04 9.52,-22.92 5.89,-5.87 14.02,-9.52 22.92,-9.52 8.94,0 17.06,3.65 22.93,9.52 5.87,5.87 9.51,13.99 9.51,22.92l0 27.13c0,8.93 -3.65,17.05 -9.51,22.92 -5.88,5.88 -13.99,9.53 -22.92,9.53zm-121.76 -119.6l0 80.71c0,7.1 0.92,13.16 4.11,16.94 3.2,3.77 9.22,6.04 19.74,6.03l0 15.89c-15.87,0.02 -25.78,-4.39 -31.92,-11.7 -6.1,-7.29 -7.89,-16.71 -7.89,-27.17l0 -80.71 15.96 0zm-31.36 26.62l46.74 0 0 15.96 -46.74 0 0 -15.96zm-596.44 -26.62l0 80.71c0,7.1 0.93,13.16 4.11,16.94 3.2,3.77 9.23,6.04 19.74,6.03l0 15.89c-15.86,0.02 -25.78,-4.39 -31.91,-11.7 -6.1,-7.29 -7.89,-16.71 -7.89,-27.17l0 -80.71 15.95 0zm-31.35 26.62l46.73 0 0 15.96 -46.73 0 0 -15.96zm61.17 77.08l49.55 0 0 15.96 -49.55 0 0 -15.96zm5.16 -76.06l27.61 0 0 84.04 -15.96 0 0 -68.09 -11.65 0 0 -15.95zm53.83 15.97c-8.81,0 -16.12,1.54 -20.89,4.57 -3.36,2.13 -5.34,5.22 -5.34,9.19l-15.96 0c0,-9.99 4.71,-17.55 12.75,-22.67 7.38,-4.68 17.64,-7.06 29.43,-7.06l0 15.96zm110.53 76.05l0 -54.7c0,-2.88 -0.28,-5.39 -0.82,-7.51 -1.05,-4.04 -3.08,-7.13 -6.05,-9.13 -3.34,-2.25 -8.05,-3.44 -14.11,-3.44 -5.03,0 -10.87,0.82 -17.49,2.51l-3.93 -15.45c7.95,-2.02 15.1,-3.01 21.42,-3.01 9.32,0 17.03,2.13 23.01,6.17 6.33,4.28 10.56,10.52 12.57,18.42 0.89,3.59 1.36,7.41 1.36,11.44l0 54.7 -15.96 0zm6.44 0.01l-27.98 0c-7.5,0 -14.33,-3.08 -19.25,-8 -4.93,-4.93 -7.99,-11.74 -7.99,-19.24 0,-7.51 3.07,-14.34 7.99,-19.26 4.93,-4.93 11.75,-7.99 19.25,-7.99l27.98 0 0 15.95 -27.98 0c-3.09,0 -5.93,1.29 -7.97,3.33 -2.04,2.04 -3.32,4.87 -3.32,7.97 0,3.09 1.28,5.93 3.32,7.97 2.04,2.05 4.87,3.33 7.97,3.33l27.98 0 0 15.96z"/>
   <path class="fil1" d="M1992.56 445.18c6.18,0 11.18,5 11.18,11.18 0,6.19 -5,11.18 -11.18,11.18 -6.19,0 -11.18,-4.99 -11.18,-11.18 0,-6.18 4.99,-11.18 11.18,-11.18z"/>
   <path class="fil1" d="M2512.33 445.18c6.18,0 11.18,5 11.18,11.18 0,6.19 -5,11.18 -11.18,11.18 -6.19,0 -11.18,-4.99 -11.18,-11.18 0,-6.18 4.99,-11.18 11.18,-11.18z"/>
   <path class="fil1" d="M3077.61 445.18c6.19,0 11.19,5 11.19,11.18 0,6.19 -5,11.18 -11.19,11.18 -6.18,0 -11.18,-4.99 -11.18,-11.18 0,-6.18 5,-11.18 11.18,-11.18z"/>
  </g>
  <path class="fil0" d="M992.28 85.27c17.87,0 35.14,3.47 51.75,10.37 8.26,3.43 16.05,7.56 23.29,12.37 7.23,4.81 13.99,10.33 20.24,16.55 6.23,6.2 11.79,12.94 16.64,20.18 4.9,7.31 9.07,15.09 12.51,23.28 3.43,8.2 6.04,16.68 7.81,25.41 1.76,8.75 2.65,17.53 2.65,26.33l0 129.66 -44.75 0 0 -29.72 -4.09 3.48c-7.81,6.38 -16.43,11.95 -25.8,16.69 -9.51,4.8 -19.27,8.4 -29.26,10.77 -10.05,2.39 -20.39,3.59 -31,3.59 -8.94,0 -17.76,-0.87 -26.39,-2.59 -8.57,-1.71 -17.05,-4.3 -25.38,-7.76 -8.27,-3.43 -16.06,-7.6 -23.35,-12.43 -7.27,-4.85 -14.08,-10.43 -20.41,-16.71 -6.35,-6.3 -11.96,-13.07 -16.82,-20.25 -4.83,-7.15 -9.02,-14.91 -12.53,-23.21 -3.48,-8.2 -6.11,-16.63 -7.85,-25.25 -1.75,-8.71 -2.64,-17.47 -2.64,-26.27 0,-8.8 0.89,-17.57 2.64,-26.27 1.75,-8.62 4.37,-17.05 7.85,-25.25 3.52,-8.3 7.7,-16.05 12.53,-23.21 4.86,-7.19 10.46,-13.96 16.82,-20.25 6.33,-6.28 13.14,-11.86 20.41,-16.71 7.28,-4.84 15.08,-8.99 23.35,-12.42 8.33,-3.46 16.81,-6.07 25.38,-7.77 8.63,-1.73 17.45,-2.6 26.39,-2.6zm0 42.88c-6.1,0 -12.02,0.59 -17.71,1.75 -5.75,1.18 -11.46,2.97 -17.07,5.36 -5.56,2.36 -10.85,5.23 -15.78,8.55 -4.95,3.34 -9.52,7.11 -13.66,11.28 -8.41,8.47 -15,18.34 -19.76,29.6 -2.38,5.66 -4.18,11.41 -5.37,17.21 -1.16,5.71 -1.75,11.67 -1.75,17.85 0,6.18 0.59,12.12 1.75,17.8 1.17,5.69 2.96,11.37 5.37,16.97 2.38,5.63 5.25,10.9 8.53,15.81 3.28,4.93 7.08,9.59 11.31,13.93 4.23,4.32 8.76,8.14 13.57,11.41 4.91,3.33 10.18,6.2 15.79,8.58 5.61,2.38 11.31,4.17 17.07,5.35 5.69,1.17 11.6,1.75 17.71,1.75 4.49,0 9.09,-0.4 13.73,-1.17 4.78,-0.79 9.77,-2 14.96,-3.64 4.88,-1.54 9.86,-3.78 14.88,-6.7 5.23,-3.04 10.48,-6.78 15.69,-11.18 5.08,-4.28 9.6,-9.09 13.51,-14.4 3.91,-5.31 7.19,-11.09 9.8,-17.27 2.68,-6.31 4.69,-12.63 6.04,-18.91 1.32,-6.13 1.99,-12.24 1.99,-18.34 0,-12.2 -2.38,-23.9 -7.09,-35.06 -4.77,-11.26 -11.33,-21.17 -19.63,-29.67 -4.15,-4.25 -8.62,-8.02 -13.4,-11.26 -4.79,-3.26 -10.04,-6.1 -15.71,-8.5 -5.62,-2.38 -11.32,-4.18 -17.07,-5.36 -5.67,-1.16 -11.59,-1.75 -17.69,-1.75zm445.79 -33.03l0 34.34 -9.41 0c-4.5,0 -9.1,0.39 -13.74,1.17 -4.79,0.78 -9.78,2.01 -14.97,3.63 -4.86,1.53 -9.82,3.75 -14.85,6.64 -5.12,2.93 -10.31,6.58 -15.53,10.88 -5.06,4.2 -9.51,8.87 -13.31,14 -3.85,5.25 -7.12,10.97 -9.74,17.16 -2.67,6.31 -4.7,12.63 -6.04,18.91 -1.32,6.16 -1.99,12.28 -1.99,18.35l0 129.22 -45.21 0 0 -129.22c0,-13.41 2.31,-27.61 6.92,-42.56 2.34,-7.62 5.75,-15.29 10.15,-22.94 4.31,-7.49 9.64,-15.01 15.95,-22.52 6.46,-7.68 13.64,-14.44 21.47,-20.19 7.85,-5.75 16.47,-10.63 25.83,-14.57 18.49,-7.79 36.86,-11.7 55.03,-11.7l9.41 0 0 9.41zm403.96 -85.7l0 210.77c0,8.93 -0.89,17.83 -2.65,26.61 -1.75,8.68 -4.36,17.13 -7.84,25.34 -3.47,8.18 -7.67,15.92 -12.58,23.15 -4.89,7.23 -10.51,13.96 -16.81,20.14 -6.25,6.13 -13.05,11.64 -20.38,16.47 -7.28,4.84 -15.09,8.97 -23.34,12.4 -8.33,3.46 -16.79,6.07 -25.37,7.77 -8.68,1.71 -17.47,2.58 -26.38,2.58 -8.94,0 -17.77,-0.87 -26.4,-2.59 -8.57,-1.71 -17.03,-4.3 -25.36,-7.76 -8.27,-3.43 -16.05,-7.56 -23.3,-12.38 -7.23,-4.79 -13.99,-10.33 -20.24,-16.54 -6.22,-6.19 -11.78,-12.93 -16.63,-20.18 -4.9,-7.3 -9.08,-15.08 -12.52,-23.29 -3.43,-8.18 -6.05,-16.65 -7.81,-25.4 -1.76,-8.74 -2.64,-17.53 -2.64,-26.33 0,-8.81 0.88,-17.58 2.64,-26.28 1.75,-8.61 4.37,-17.04 7.85,-25.24 3.48,-8.23 7.66,-15.98 12.49,-23.17 4.84,-7.22 10.38,-13.98 16.6,-20.26 6.22,-6.26 12.99,-11.84 20.25,-16.7 7.29,-4.87 15.1,-9.05 23.32,-12.46 8.32,-3.46 16.8,-6.06 25.37,-7.77 8.63,-1.72 17.45,-2.59 26.39,-2.59 22.02,0 43.12,5.83 63.27,17.47 9.96,5.75 18.66,12.14 26.03,19.14l0.85 0.82 0 -123.14 45.21 0 0 9.42zm-135.35 119.16c-6.11,0 -12.02,0.59 -17.69,1.75 -5.75,1.18 -11.48,2.97 -17.07,5.35 -5.69,2.42 -10.95,5.26 -15.74,8.51 -4.75,3.24 -9.25,7.01 -13.39,11.25 -4.13,4.23 -7.85,8.85 -11.12,13.78 -3.29,4.99 -6.14,10.31 -8.5,15.89 -2.37,5.62 -4.17,11.36 -5.35,17.17 -1.17,5.75 -1.75,11.72 -1.75,17.9 0,6.19 0.59,12.16 1.74,17.85 1.19,5.8 2.99,11.54 5.37,17.17 2.37,5.62 5.21,10.93 8.5,15.93 3.27,4.94 6.99,9.55 11.12,13.78 4.15,4.25 8.63,8.03 13.39,11.26 4.83,3.27 10.08,6.13 15.7,8.5 5.64,2.39 11.35,4.18 17.11,5.36 5.66,1.16 11.57,1.75 17.69,1.75 8.94,0 18.58,-1.67 28.84,-4.99 4.99,-1.61 10.05,-3.91 15.1,-6.87 5.34,-3.15 10.62,-6.91 15.79,-11.26 5.07,-4.29 9.6,-9.1 13.5,-14.4 3.91,-5.24 7.17,-11.01 9.82,-17.28 2.65,-6.29 4.68,-12.59 6.04,-18.84 1.31,-6.06 1.98,-12.05 1.98,-17.96 0,-6.18 -0.59,-12.14 -1.75,-17.86 -1.18,-5.84 -2.98,-11.6 -5.35,-17.21 -2.38,-5.61 -5.22,-10.9 -8.53,-15.84 -3.3,-4.93 -7.06,-9.55 -11.25,-13.77 -4.14,-4.16 -8.7,-7.94 -13.64,-11.28 -4.94,-3.33 -10.21,-6.18 -15.79,-8.55 -5.61,-2.38 -11.33,-4.17 -17.09,-5.35 -5.67,-1.17 -11.58,-1.75 -17.67,-1.75zm432.22 -42.87c17.87,0 35.15,3.46 51.76,10.36 8.25,3.43 16.04,7.56 23.28,12.37 7.23,4.8 13.99,10.33 20.24,16.55 6.21,6.17 11.78,12.88 16.63,20.1 4.81,7.11 8.98,14.85 12.49,23.14 3.49,8.23 6.11,16.64 7.85,25.21 1.75,8.74 2.64,17.51 2.64,26.3l0 9.41 -225.07 0c0.29,2.9 0.69,5.76 1.23,8.56 1.13,5.92 2.83,11.69 5.05,17.26 2.21,5.56 4.95,10.88 8.17,15.89 3.19,4.95 6.85,9.59 10.96,13.86 4.13,4.29 8.62,8.13 13.44,11.47 4.85,3.35 10.09,6.27 15.73,8.74 5.57,2.44 11.3,4.27 17.15,5.49 5.75,1.18 11.75,1.79 18,1.79 3.89,0 8.04,-0.37 12.42,-1.1 4.59,-0.78 9.54,-1.94 14.77,-3.5 4.94,-1.49 9.91,-3.62 14.82,-6.37 5.01,-2.82 10.01,-6.31 14.94,-10.43 4.93,-4.12 9.35,-8.59 13.19,-13.33 3.85,-4.76 7.18,-9.85 9.97,-15.25l2.65 -5.11 48.23 0 -5.12 12.87c-4.99,12.56 -11.6,23.96 -19.81,34.12 -8.21,10.18 -18.05,19.2 -29.46,27.01 -11.41,7.81 -23.5,13.7 -36.22,17.61 -12.76,3.94 -26.08,5.91 -39.91,5.91 -9.06,0 -17.99,-0.87 -26.71,-2.59 -8.69,-1.72 -17.21,-4.3 -25.52,-7.76 -8.27,-3.43 -16.05,-7.57 -23.3,-12.39 -7.22,-4.79 -13.98,-10.31 -20.23,-16.53 -6.24,-6.19 -11.79,-12.94 -16.65,-20.19 -4.86,-7.25 -9.04,-15.04 -12.49,-23.29 -3.44,-8.17 -6.06,-16.64 -7.82,-25.39 -1.76,-8.74 -2.65,-17.53 -2.65,-26.33 0,-8.81 0.89,-17.58 2.65,-26.34 1.76,-8.74 4.38,-17.21 7.81,-25.4 3.47,-8.24 7.66,-16.01 12.51,-23.27 4.86,-7.25 10.41,-13.99 16.64,-20.19 6.25,-6.21 13,-11.74 20.24,-16.55 7.24,-4.81 15.03,-8.94 23.29,-12.37 8.3,-3.45 16.83,-6.05 25.53,-7.77 8.72,-1.72 17.65,-2.59 26.7,-2.59zm0 42.87c-20.7,0 -39.3,6.52 -55.78,19.57 -13.14,10.45 -22.67,23.02 -28.55,37.7l168.01 0 -0.9 -2.11c-1.9,-4.38 -4.3,-8.78 -7.12,-13.14 -2.7,-4.21 -5.74,-8.17 -9.07,-11.89 -3.29,-3.67 -6.96,-7.14 -10.93,-10.35 -3.89,-3.2 -8.01,-6 -12.33,-8.4 -4.29,-2.4 -8.93,-4.5 -13.86,-6.25 -4.75,-1.7 -9.64,-3 -14.59,-3.86 -4.85,-0.83 -9.82,-1.27 -14.88,-1.27zm336.83 220.83l-35.81 0 0 -349.4 45.22 0 0 349.4 -9.41 0zm310.92 -263.7c17.88,0 35.15,3.47 51.74,10.36 8.27,3.42 16.05,7.56 23.29,12.37 7.23,4.8 14,10.33 20.25,16.55 6.21,6.17 11.77,12.88 16.63,20.1 4.8,7.11 8.98,14.85 12.49,23.14 3.46,8.2 6.08,16.62 7.83,25.21 1.78,8.7 2.67,17.48 2.67,26.3l0 9.41 -225.07 0c0.29,2.9 0.69,5.76 1.23,8.56 1.12,5.92 2.82,11.69 5.04,17.26 2.21,5.56 4.95,10.88 8.17,15.89 3.18,4.95 6.85,9.59 10.96,13.86 4.12,4.29 8.62,8.13 13.45,11.48 4.84,3.35 10.08,6.27 15.72,8.73 5.58,2.44 11.31,4.28 17.11,5.48 5.81,1.19 11.82,1.8 18.05,1.8 3.9,0 8.04,-0.37 12.4,-1.1 4.55,-0.77 9.49,-1.94 14.78,-3.51 4.96,-1.48 9.92,-3.61 14.83,-6.37 5.02,-2.81 10.01,-6.3 14.93,-10.42 4.93,-4.12 9.35,-8.59 13.19,-13.33 3.85,-4.76 7.18,-9.85 9.97,-15.25l2.64 -5.11 48.23 0 -5.12 12.87c-4.99,12.56 -11.6,23.96 -19.8,34.12 -8.22,10.19 -18.04,19.2 -29.47,27.01 -11.41,7.8 -23.49,13.7 -36.21,17.61 -12.75,3.94 -26.07,5.91 -39.9,5.91 -9.06,0 -17.96,-0.86 -26.7,-2.58 -8.7,-1.72 -17.23,-4.32 -25.53,-7.77 -8.26,-3.43 -16.04,-7.56 -23.28,-12.38 -7.23,-4.79 -14,-10.33 -20.25,-16.54 -6.22,-6.19 -11.79,-12.94 -16.64,-20.19 -4.86,-7.26 -9.04,-15.04 -12.49,-23.29 -3.44,-8.17 -6.07,-16.64 -7.82,-25.39 -1.76,-8.74 -2.65,-17.53 -2.65,-26.33 0,-8.81 0.89,-17.58 2.65,-26.34 1.75,-8.74 4.38,-17.21 7.81,-25.4 3.47,-8.23 7.64,-16 12.5,-23.27 4.85,-7.24 10.42,-14 16.64,-20.19 6.25,-6.21 13.01,-11.74 20.25,-16.55 7.24,-4.81 15.02,-8.94 23.28,-12.37 16.61,-6.9 34.04,-10.36 52.23,-10.36zm0 42.87c-20.71,0 -39.32,6.53 -55.79,19.59 -8.25,6.53 -15.1,13.96 -20.51,22.23 -3.18,4.86 -5.87,10.01 -8.04,15.45l168.07 0 -0.9 -2.11c-2.05,-4.53 -4.42,-8.92 -7.15,-13.14 -2.71,-4.21 -5.75,-8.18 -9.08,-11.89 -3.3,-3.67 -6.96,-7.14 -10.93,-10.36 -3.9,-3.19 -8.02,-6 -12.34,-8.4 -4.37,-2.43 -8.99,-4.52 -13.84,-6.24 -4.77,-1.71 -9.65,-3 -14.6,-3.86 -4.84,-0.83 -9.81,-1.27 -14.87,-1.27zm429.43 -42.87c17.22,0 34.52,3.52 51.88,10.54 8.72,3.51 16.88,7.88 24.49,13.1 7.6,5.19 14.6,11.24 20.99,18.03 6.31,6.74 11.82,13.73 16.5,20.95 4.71,7.34 8.59,14.86 11.58,22.55l4.98 12.79 -47.59 0 -2.67 -5.05c-1.82,-3.44 -4.09,-7.02 -6.74,-10.66 -2.65,-3.64 -5.93,-7.62 -9.78,-11.91 -3.46,-3.85 -7.49,-7.41 -12.07,-10.63 -4.66,-3.27 -9.95,-6.27 -15.86,-8.96 -5.88,-2.67 -11.77,-4.67 -17.63,-5.96 -5.82,-1.29 -11.85,-1.94 -18.07,-1.94 -6.11,0 -12,0.59 -17.69,1.75 -5.75,1.18 -11.47,2.96 -17.07,5.35 -5.57,2.37 -10.86,5.25 -15.8,8.56 -4.95,3.34 -9.51,7.11 -13.65,11.27 -8.41,8.48 -15,18.34 -19.76,29.6 -2.38,5.66 -4.17,11.41 -5.36,17.21 -1.17,5.72 -1.75,11.68 -1.75,17.86 0,6.17 0.59,12.14 1.75,17.85 1.18,5.8 2.97,11.54 5.36,17.17 2.37,5.63 5.23,10.97 8.55,15.99 3.3,4.97 7.09,9.64 11.29,13.95 4.17,4.27 8.73,8.08 13.6,11.41 4.87,3.32 10.14,6.19 15.76,8.58 5.6,2.37 11.31,4.16 17.07,5.35 5.68,1.15 11.59,1.74 17.7,1.74 4,0 8.24,-0.39 12.71,-1.15 4.71,-0.81 9.68,-2.04 14.86,-3.65 4.9,-1.52 9.86,-3.72 14.84,-6.58 4.97,-2.83 9.97,-6.39 14.97,-10.64 4.97,-4.23 9.38,-8.76 13.18,-13.57 3.84,-4.88 7.17,-10.1 9.97,-15.64l2.62 -5.18 47.72 0 -4.96 12.79c-4.98,12.87 -11.61,24.51 -19.86,34.87 -8.25,10.38 -18.16,19.55 -29.67,27.44 -11.48,7.87 -23.63,13.81 -36.4,17.77 -12.8,3.97 -26.13,5.96 -39.97,5.96 -9.06,0 -17.99,-0.87 -26.71,-2.59 -8.69,-1.72 -17.21,-4.3 -25.52,-7.76 -8.26,-3.43 -16.04,-7.56 -23.29,-12.38 -7.23,-4.79 -14,-10.33 -20.25,-16.54 -6.22,-6.19 -11.79,-12.94 -16.64,-20.19 -4.86,-7.26 -9.04,-15.04 -12.49,-23.29 -3.44,-8.17 -6.06,-16.64 -7.82,-25.39 -1.76,-8.74 -2.65,-17.53 -2.65,-26.33 0,-8.81 0.89,-17.58 2.65,-26.34 1.76,-8.74 4.38,-17.21 7.81,-25.4 3.47,-8.23 7.64,-16 12.5,-23.27 4.86,-7.24 10.42,-14 16.64,-20.19 6.26,-6.21 13.01,-11.74 20.25,-16.55 7.24,-4.81 15.03,-8.95 23.29,-12.37 8.3,-3.45 16.83,-6.05 25.53,-7.77 8.72,-1.72 17.65,-2.59 26.7,-2.59z"/>
  <path class="fil1" d="M303.13 186.77c26.61,-62.26 53.23,-124.5 79.84,-186.76 118.63,238.63 237.27,477.25 355.89,715.87 0,33.83 0,21.4 0,55.23 -246.29,0 -492.59,0 -738.87,0 0,-33.83 0,-21.4 0,-55.23 60.24,-45.54 108.03,-110.99 150.21,-185.39 41.04,73.08 90.68,137.57 156.98,185.39 86.6,0 173.22,0 259.82,0 -87.96,-176.37 -175.93,-352.74 -263.89,-529.11z"/>
  <rect class="fil2" y="715.87" width="3346.94" height="55.23"/>
 </g>
</svg>
