<?xml version="1.0" encoding="UTF-8"?>
<!DOCTYPE svg PUBLIC "-//W3C//DTD SVG 1.1//EN" "http://www.w3.org/Graphics/SVG/1.1/DTD/svg11.dtd">
<!-- Creator: CorelDRAW -->
<svg xmlns="http://www.w3.org/2000/svg" xml:space="preserve" width="50.7236mm" height="11.7623mm" version="1.1" style="shape-rendering:geometricPrecision; text-rendering:geometricPrecision; image-rendering:optimizeQuality; fill-rule:evenodd; clip-rule:evenodd"
viewBox="0 0 4932.66 1143.83"
 xmlns:xlink="http://www.w3.org/1999/xlink"
 xmlns:xodm="http://www.corel.com/coreldraw/odm/2003">
 <defs>
  <style type="text/css">
   <![CDATA[
    .fil0 {fill:#E31E24}
    .fil1 {fill:#E31E24;fill-rule:nonzero}
   ]]>
  </style>
 </defs>
 <g id="Layer_x0020_1">
  <metadata id="CorelCorpID_0Corel-Layer"/>
  <path class="fil0" d="M423.79 293.14c37.22,-87.03 74.43,-174.05 111.64,-261.09 165.85,333.61 331.72,667.23 497.59,1000.84l3899.64 0 0 110.94c-512.73,0 -4419.92,0 -4932.66,0 0,-47.3 0,-63.65 0,-110.94 84.22,-63.68 151.04,-155.18 210.01,-259.2 57.38,102.18 126.78,192.34 219.47,259.2 121.07,0 242.16,0 363.24,0 -122.98,-246.58 -245.95,-493.17 -368.94,-739.76z"/>
  <path class="fil1" d="M1505.11 117.93c24.71,0 48.6,4.78 71.57,14.33 11.43,4.74 22.19,10.45 32.21,17.11 10,6.65 19.34,14.3 27.98,22.88 8.62,8.57 16.32,17.89 23.03,27.9 6.77,10.11 12.54,20.87 17.3,32.2 4.75,11.34 8.36,23.06 10.8,35.14 2.43,12.1 3.67,24.24 3.67,36.41l0 179.32 -61.89 0 0 -41.12 -5.65 4.82c-10.8,8.81 -22.73,16.51 -35.69,23.08 -13.14,6.64 -26.65,11.61 -40.46,14.9 -13.9,3.31 -28.2,4.97 -42.87,4.97 -12.37,0 -24.55,-1.21 -36.5,-3.6 -11.85,-2.35 -23.57,-5.94 -35.1,-10.73 -11.43,-4.75 -22.21,-10.49 -32.29,-17.19 -10.06,-6.7 -19.48,-14.41 -28.23,-23.11 -8.78,-8.71 -16.53,-18.08 -23.25,-28.01 -6.68,-9.9 -12.48,-20.62 -17.33,-32.09 -4.81,-11.35 -8.45,-23.01 -10.85,-34.92 -2.44,-12.04 -3.67,-24.16 -3.67,-36.33 0,-12.17 1.23,-24.29 3.67,-36.33 2.4,-11.9 6.04,-23.57 10.85,-34.91 4.86,-11.48 10.65,-22.21 17.33,-32.1 6.72,-9.95 14.47,-19.3 23.25,-28.02 8.75,-8.68 18.18,-16.41 28.23,-23.11 10.07,-6.69 20.86,-12.44 32.29,-17.17 11.52,-4.78 23.24,-8.38 35.1,-10.75 11.94,-2.38 24.13,-3.59 36.5,-3.59zm0 59.29c-8.43,0 -16.62,0.81 -24.49,2.42 -7.94,1.61 -15.84,4.1 -23.59,7.39 -7.69,3.28 -15.01,7.24 -21.83,11.84 -6.85,4.61 -13.16,9.83 -18.89,15.59 -11.63,11.72 -20.75,25.37 -27.34,40.94 -3.3,7.83 -5.78,15.78 -7.41,23.81 -1.61,7.91 -2.42,16.15 -2.42,24.69 0,8.55 0.81,16.77 2.42,24.62 1.6,7.88 4.09,15.71 7.41,23.46 3.31,7.8 7.26,15.08 11.8,21.88 4.55,6.83 9.78,13.26 15.65,19.26 5.85,5.97 12.12,11.25 18.77,15.77 6.8,4.6 14.08,8.57 21.84,11.86 7.75,3.3 15.65,5.78 23.59,7.4 7.87,1.6 16.06,2.42 24.49,2.42 6.21,0 12.57,-0.54 18.98,-1.61 6.61,-1.08 13.53,-2.76 20.7,-5.03 6.75,-2.12 13.62,-5.23 20.57,-9.27 7.24,-4.2 14.49,-9.37 21.71,-15.46 7.02,-5.9 13.27,-12.56 18.68,-19.92 5.41,-7.35 9.95,-15.33 13.56,-23.88 3.71,-8.72 6.5,-17.48 8.36,-26.15 1.82,-8.47 2.74,-16.93 2.74,-25.36 0,-16.87 -3.29,-33.05 -9.81,-48.5 -6.6,-15.57 -15.67,-29.27 -27.15,-41.04 -5.74,-5.87 -11.93,-11.09 -18.54,-15.57 -6.62,-4.5 -13.89,-8.43 -21.72,-11.77 -7.77,-3.29 -15.66,-5.78 -23.61,-7.39 -7.84,-1.61 -16.03,-2.42 -24.47,-2.42zm616.53 -45.68l0 47.49 -13.01 0c-6.23,0 -12.58,0.53 -19,1.6 -6.62,1.09 -13.54,2.79 -20.69,5.03 -6.73,2.12 -13.59,5.19 -20.54,9.17 -7.08,4.06 -14.26,9.09 -21.47,15.05 -7.01,5.81 -13.16,12.27 -18.4,19.36 -5.34,7.24 -9.86,15.18 -13.47,23.73 -3.71,8.73 -6.51,17.47 -8.36,26.14 -1.83,8.52 -2.74,16.99 -2.74,25.38l0 178.72 -62.53 0 0 -178.72c0,-18.54 3.19,-38.17 9.57,-58.84 3.25,-10.54 7.95,-21.14 14.05,-31.73 5.96,-10.37 13.33,-20.76 22.07,-31.15 8.93,-10.62 18.85,-19.95 29.69,-27.92 10.85,-7.95 22.77,-14.7 35.72,-20.15 25.58,-10.77 50.98,-16.18 76.11,-16.18l13.01 0 0 13.01zm558.67 -118.52l0 291.48c0,12.37 -1.23,24.66 -3.68,36.8 -2.4,12 -6.03,23.7 -10.83,35.06 -4.78,11.32 -10.61,22.01 -17.4,32.01 -6.77,10.01 -14.54,19.3 -23.24,27.85 -8.64,8.48 -18.05,16.09 -28.19,22.78 -10.06,6.69 -20.87,12.4 -32.28,17.14 -11.52,4.78 -23.22,8.38 -35.09,10.75 -12.01,2.37 -24.17,3.57 -36.49,3.57 -12.37,0 -24.57,-1.2 -36.51,-3.59 -11.86,-2.35 -23.56,-5.94 -35.08,-10.73 -11.43,-4.75 -22.18,-10.45 -32.21,-17.12 -10.01,-6.63 -19.35,-14.29 -27.99,-22.87 -8.62,-8.57 -16.3,-17.88 -23.01,-27.92 -6.77,-10.08 -12.56,-20.85 -17.32,-32.2 -4.75,-11.32 -8.37,-23.03 -10.8,-35.13 -2.43,-12.1 -3.66,-24.25 -3.66,-36.42 0,-12.17 1.23,-24.29 3.66,-36.33 2.41,-11.9 6.05,-23.57 10.85,-34.91 4.82,-11.39 10.58,-22.08 17.27,-32.04 6.68,-10 14.35,-19.34 22.96,-28.03 8.6,-8.66 17.95,-16.38 28,-23.11 10.07,-6.73 20.87,-12.51 32.25,-17.23 11.5,-4.77 23.23,-8.37 35.09,-10.74 11.94,-2.38 24.13,-3.59 36.5,-3.59 30.45,0 59.63,8.06 87.5,24.17 13.78,7.94 25.8,16.78 35.99,26.47l1.18 1.13 0 -170.3 62.52 0 0 13.02zm-187.19 164.8c-8.45,0 -16.62,0.81 -24.46,2.42 -7.96,1.63 -15.87,4.11 -23.61,7.39 -7.87,3.35 -15.14,7.28 -21.76,11.78 -6.58,4.47 -12.79,9.69 -18.53,15.56 -5.72,5.85 -10.86,12.23 -15.37,19.06 -4.56,6.91 -8.49,14.26 -11.77,21.98 -3.28,7.77 -5.78,15.71 -7.39,23.75 -1.61,7.95 -2.42,16.2 -2.42,24.75 0,8.57 0.81,16.81 2.39,24.69 1.64,8.03 4.13,15.97 7.42,23.75 3.28,7.77 7.21,15.12 11.77,22.03 4.51,6.84 9.66,13.22 15.37,19.06 5.74,5.87 11.93,11.1 18.53,15.57 6.68,4.54 13.94,8.47 21.71,11.77 7.8,3.31 15.7,5.78 23.66,7.41 7.83,1.59 16,2.41 24.46,2.41 12.37,0 25.69,-2.31 39.89,-6.89 6.9,-2.23 13.91,-5.41 20.88,-9.5 7.39,-4.37 14.69,-9.57 21.83,-15.58 7.02,-5.92 13.27,-12.58 18.67,-19.91 5.4,-7.24 9.92,-15.23 13.58,-23.89 3.68,-8.7 6.48,-17.42 8.36,-26.05 1.82,-8.38 2.74,-16.68 2.74,-24.86 0,-8.54 -0.82,-16.78 -2.42,-24.69 -1.62,-8.08 -4.12,-16.04 -7.4,-23.81 -3.29,-7.75 -7.22,-15.06 -11.79,-21.91 -4.57,-6.83 -9.77,-13.21 -15.56,-19.03 -5.73,-5.75 -12.04,-10.99 -18.89,-15.6 -6.83,-4.6 -14.12,-8.55 -21.82,-11.83 -7.76,-3.29 -15.68,-5.78 -23.64,-7.39 -7.84,-1.61 -16.01,-2.42 -24.44,-2.42zm597.75 -59.29c24.71,0 48.6,4.77 71.57,14.32 11.43,4.75 22.19,10.46 32.21,17.12 10,6.64 19.34,14.3 27.98,22.88 8.6,8.54 16.29,17.83 23,27.8 6.65,9.83 12.42,20.52 17.28,32 4.82,11.38 8.44,23.02 10.85,34.86 2.43,12.09 3.67,24.21 3.67,36.38l0 13.02 -311.26 0c0.39,4.01 0.95,7.96 1.69,11.83 1.57,8.19 3.91,16.17 6.98,23.87 3.06,7.7 6.85,15.04 11.29,21.98 4.41,6.85 9.48,13.26 15.16,19.18 5.7,5.93 11.92,11.24 18.56,15.85 6.71,4.64 13.96,8.67 21.75,12.09 7.71,3.36 15.64,5.89 23.73,7.58 7.94,1.65 16.26,2.49 24.89,2.49 5.37,0 11.12,-0.52 17.17,-1.53 6.34,-1.07 13.19,-2.69 20.41,-4.84 6.85,-2.05 13.71,-5 20.5,-8.8 6.93,-3.9 13.84,-8.72 20.66,-14.43 6.82,-5.7 12.92,-11.87 18.23,-18.43 5.32,-6.59 9.93,-13.63 13.79,-21.09l3.67 -7.07 66.7 0 -7.08 17.8c-6.89,17.38 -16.05,33.13 -27.38,47.19 -11.36,14.07 -24.96,26.55 -40.75,37.35 -15.78,10.8 -32.51,18.94 -50.09,24.36 -17.65,5.45 -36.06,8.17 -55.2,8.17 -12.53,0 -24.88,-1.2 -36.93,-3.59 -12.03,-2.37 -23.81,-5.94 -35.3,-10.73 -11.43,-4.75 -22.18,-10.47 -32.21,-17.13 -10,-6.62 -19.33,-14.26 -27.98,-22.85 -8.63,-8.57 -16.32,-17.91 -23.03,-27.93 -6.71,-10.03 -12.51,-20.79 -17.28,-32.2 -4.76,-11.31 -8.38,-23.02 -10.81,-35.12 -2.44,-12.1 -3.67,-24.25 -3.67,-36.42 0,-12.17 1.23,-24.31 3.67,-36.41 2.43,-12.09 6.06,-23.82 10.8,-35.14 4.78,-11.39 10.59,-22.14 17.3,-32.18 6.71,-10.03 14.4,-19.35 23.02,-27.92 8.65,-8.59 17.98,-16.24 27.99,-22.88 10.02,-6.65 20.78,-12.37 32.2,-17.12 11.48,-4.77 23.28,-8.36 35.31,-10.74 12.06,-2.38 24.41,-3.59 36.92,-3.59zm0 59.29c-28.63,0 -54.35,9.01 -77.14,27.06 -18.18,14.45 -31.35,31.83 -39.49,52.13l232.36 0 -1.24 -2.92c-2.64,-6.06 -5.95,-12.14 -9.85,-18.18 -3.73,-5.82 -7.94,-11.31 -12.54,-16.44 -4.56,-5.08 -9.63,-9.87 -15.11,-14.31 -5.39,-4.41 -11.09,-8.29 -17.07,-11.62 -5.93,-3.32 -12.35,-6.21 -19.16,-8.64 -6.57,-2.35 -13.33,-4.14 -20.19,-5.34 -6.7,-1.15 -13.58,-1.75 -20.58,-1.75zm465.83 305.4l-49.52 0 0 -483.22 62.53 0 0 483.22 -13.01 0zm429.97 -364.69c24.73,0 48.62,4.79 71.57,14.32 11.43,4.74 22.19,10.46 32.2,17.12 10.01,6.64 19.36,14.3 28,22.88 8.59,8.54 16.29,17.83 23,27.8 6.64,9.83 12.41,20.52 17.28,32 4.77,11.34 8.41,22.98 10.82,34.86 2.46,12.04 3.69,24.18 3.69,36.38l0 13.02 -311.26 0c0.4,4.01 0.96,7.96 1.7,11.83 1.56,8.19 3.89,16.17 6.96,23.87 3.06,7.7 6.85,15.04 11.3,21.98 4.4,6.85 9.47,13.26 15.15,19.18 5.7,5.93 11.92,11.24 18.59,15.86 6.69,4.64 13.95,8.68 21.74,12.08 7.72,3.36 15.64,5.9 23.66,7.57 8.02,1.66 16.35,2.5 24.96,2.5 5.38,0 11.11,-0.52 17.14,-1.53 6.29,-1.06 13.13,-2.68 20.43,-4.85 6.87,-2.04 13.72,-4.99 20.51,-8.8 6.94,-3.89 13.85,-8.71 20.66,-14.42 6.83,-5.7 12.93,-11.87 18.24,-18.43 5.32,-6.59 9.93,-13.63 13.79,-21.09l3.66 -7.07 66.7 0 -7.08 17.8c-6.89,17.38 -16.04,33.13 -27.38,47.19 -11.35,14.09 -24.94,26.55 -40.76,37.35 -15.77,10.79 -32.48,18.94 -50.08,24.36 -17.65,5.45 -36.06,8.17 -55.2,8.17 -12.53,0 -24.84,-1.19 -36.91,-3.57 -12.03,-2.37 -23.83,-5.98 -35.31,-10.75 -11.44,-4.75 -22.18,-10.45 -32.2,-17.12 -10.01,-6.63 -19.36,-14.29 -28,-22.87 -8.61,-8.57 -16.32,-17.9 -23.03,-27.93 -6.71,-10.04 -12.5,-20.79 -17.28,-32.2 -4.76,-11.31 -8.38,-23.02 -10.81,-35.12 -2.43,-12.1 -3.66,-24.25 -3.66,-36.42 0,-12.17 1.23,-24.31 3.66,-36.41 2.43,-12.09 6.06,-23.82 10.8,-35.14 4.79,-11.38 10.57,-22.13 17.29,-32.18 6.71,-10.02 14.42,-19.35 23.03,-27.92 8.64,-8.59 17.99,-16.24 28,-22.88 10.02,-6.65 20.76,-12.37 32.2,-17.12 22.97,-9.55 47.07,-14.32 72.22,-14.32zm0 59.29c-28.63,0 -54.37,9.03 -77.15,27.08 -11.41,9.03 -20.88,19.31 -28.37,30.75 -4.4,6.71 -8.11,13.84 -11.12,21.36l232.44 0 -1.24 -2.92c-2.82,-6.25 -6.12,-12.32 -9.89,-18.18 -3.74,-5.82 -7.95,-11.32 -12.56,-16.44 -4.56,-5.08 -9.62,-9.87 -15.11,-14.31 -5.39,-4.41 -11.09,-8.3 -17.06,-11.63 -6.05,-3.35 -12.44,-6.24 -19.15,-8.63 -6.6,-2.36 -13.35,-4.14 -20.2,-5.34 -6.7,-1.15 -13.57,-1.75 -20.58,-1.75zm593.91 -59.29c23.82,0 47.74,4.86 71.75,14.58 12.06,4.85 23.36,10.9 33.86,18.12 10.51,7.19 20.21,15.54 29.03,24.94 8.73,9.32 16.35,18.99 22.81,28.98 6.52,10.14 11.88,20.56 16.02,31.19l6.89 17.68 -65.82 0 -3.71 -6.96c-2.52,-4.76 -5.65,-9.71 -9.32,-14.75 -3.68,-5.04 -8.2,-10.54 -13.53,-16.46 -4.78,-5.33 -10.37,-10.25 -16.7,-14.7 -6.44,-4.53 -13.76,-8.67 -21.92,-12.39 -8.13,-3.7 -16.29,-6.47 -24.39,-8.25 -8.04,-1.78 -16.38,-2.67 -24.98,-2.67 -8.44,0 -16.61,0.81 -24.46,2.42 -7.96,1.61 -15.87,4.1 -23.62,7.39 -7.71,3.29 -15.02,7.25 -21.84,11.85 -6.85,4.62 -13.15,9.83 -18.88,15.58 -11.63,11.72 -20.75,25.37 -27.34,40.94 -3.3,7.83 -5.78,15.78 -7.41,23.81 -1.61,7.91 -2.42,16.15 -2.42,24.69 0,8.55 0.81,16.8 2.42,24.69 1.63,8.03 4.11,15.97 7.41,23.75 3.27,7.79 7.23,15.17 11.83,22.11 4.56,6.87 9.79,13.33 15.61,19.28 5.78,5.91 12.07,11.18 18.82,15.77 6.74,4.59 14.02,8.56 21.79,11.86 7.74,3.29 15.65,5.77 23.61,7.4 7.85,1.59 16.03,2.41 24.47,2.41 5.53,0 11.41,-0.54 17.57,-1.6 6.52,-1.12 13.39,-2.81 20.57,-5.04 6.77,-2.1 13.62,-5.14 20.51,-9.09 6.87,-3.91 13.79,-8.83 20.69,-14.71 6.88,-5.83 12.97,-12.12 18.23,-18.76 5.31,-6.76 9.91,-13.97 13.79,-21.63l3.62 -7.18 65.99 0 -6.86 17.69c-6.89,17.8 -16.07,33.89 -27.47,48.22 -11.41,14.34 -25.11,27.02 -41.04,37.96 -15.88,10.88 -32.67,19.1 -50.32,24.57 -17.7,5.49 -36.14,8.25 -55.28,8.25 -12.53,0 -24.88,-1.2 -36.93,-3.59 -12.03,-2.37 -23.81,-5.94 -35.3,-10.73 -11.42,-4.75 -22.17,-10.45 -32.2,-17.12 -10.01,-6.63 -19.35,-14.29 -28,-22.87 -8.61,-8.57 -16.31,-17.9 -23.02,-27.93 -6.71,-10.04 -12.5,-20.79 -17.28,-32.2 -4.76,-11.31 -8.38,-23.02 -10.81,-35.12 -2.43,-12.1 -3.67,-24.25 -3.67,-36.42 0,-12.17 1.24,-24.31 3.67,-36.41 2.43,-12.09 6.06,-23.82 10.8,-35.14 4.79,-11.38 10.57,-22.13 17.29,-32.18 6.71,-10.02 14.41,-19.35 23.02,-27.92 8.65,-8.59 17.99,-16.24 28,-22.88 10.02,-6.65 20.78,-12.38 32.2,-17.12 11.48,-4.77 23.28,-8.36 35.31,-10.74 12.06,-2.38 24.41,-3.59 36.92,-3.59z"/>
  <path class="fil1" d="M4500.86 759.26c8.02,-10.65 19,-17.89 30.25,-21.33 8.41,-2.58 17.12,-3.06 25.02,-1.3 8.48,1.89 16.04,6.25 21.47,13.25 4.85,6.31 7.94,14.55 8.33,24.82l0.04 77.82 -20.67 0 0 -77.46c-0.23,-5.42 -1.71,-9.56 -4,-12.52 -2.38,-3.03 -5.77,-4.96 -9.62,-5.82 -4.42,-0.98 -9.52,-0.66 -14.61,0.89 -7.3,2.23 -14.47,6.97 -19.75,13.99l-16.47 -12.36zm-17.19 -25.95l35.77 0 0 119.21 -20.67 0 0 -98.54 -15.09 0 0 -20.67zm-371.39 -1.32l60.55 0 0 20.67 -60.55 0 0 -20.67zm40.61 -34.48l0 104.56c0,9.2 1.21,17.06 5.34,21.96 4.14,4.88 11.94,7.83 25.56,7.81l0 20.6c-20.56,0.02 -33.38,-5.69 -41.34,-15.16 -7.91,-9.45 -10.22,-21.66 -10.22,-35.2l0 -104.56 20.66 0zm-817.26 155.02l-36.25 0c-9.71,0 -18.55,-3.98 -24.93,-10.36 -6.38,-6.38 -10.36,-15.22 -10.36,-24.93 0,-9.72 3.98,-18.56 10.36,-24.94 6.38,-6.39 15.22,-10.37 24.93,-10.37l36.25 0 0 20.67 -36.25 0c-4,0 -7.67,1.66 -10.32,4.31 -2.65,2.65 -4.31,6.31 -4.31,10.32 0,4.01 1.66,7.68 4.31,10.33 2.65,2.65 6.32,4.31 10.32,4.31l36.25 0 0 20.66zm-8.34 -0.01l0 -70.86c0,-3.72 -0.36,-6.98 -1.06,-9.72 -1.36,-5.23 -4,-9.24 -7.84,-11.83 -4.32,-2.92 -10.42,-4.45 -18.28,-4.45 -6.52,0 -14.08,1.06 -22.65,3.25l-5.1 -20.02c10.3,-2.63 19.57,-3.9 27.74,-3.9 12.09,0 22.07,2.77 29.82,8 8.21,5.54 13.67,13.61 16.29,23.86 1.15,4.65 1.75,9.61 1.75,14.82l0 70.86 -20.67 0zm-224.99 -98.53c-11.43,0 -20.88,1.99 -27.06,5.92 -4.36,2.77 -6.92,6.77 -6.92,11.91l-20.66 0c0,-12.93 6.1,-22.74 16.52,-29.36 9.55,-6.08 22.84,-9.15 38.13,-9.15l0 20.67zm-69.75 -20.69l35.77 0 0 108.89 -20.66 0 0 -88.21 -15.1 0 0 -20.67zm-6.68 98.55l64.19 0 0 20.67 -64.19 0 0 -20.67zm-116.99 -99.85l60.55 0 0 20.67 -60.55 0 0 -20.67zm40.61 -34.48l0 104.56c0,9.2 1.21,17.06 5.33,21.96 4.14,4.88 11.95,7.83 25.57,7.81l0 20.6c-20.56,0.02 -33.39,-5.69 -41.35,-15.16 -7.9,-9.45 -10.22,-21.66 -10.22,-35.2l0 -104.56 20.67 0zm1436.67 154.92c-11.53,0 -22.06,-4.73 -29.67,-12.33 -7.65,-7.66 -12.38,-18.18 -12.38,-29.69l0 -35.15c0,-11.56 4.73,-22.08 12.34,-29.69 7.63,-7.6 18.16,-12.34 29.69,-12.34 11.58,0 22.09,4.73 29.71,12.34 7.59,7.59 12.33,18.13 12.33,29.69l0 35.15c0,11.56 -4.74,22.08 -12.33,29.69 -7.61,7.6 -18.13,12.33 -29.69,12.33zm-0.02 -20.66c5.87,0 11.22,-2.42 15.09,-6.29 3.86,-3.86 6.27,-9.21 6.27,-15.06l0 -35.15c0,-5.86 -2.41,-11.21 -6.27,-15.07 -3.87,-3.87 -9.22,-6.28 -15.07,-6.28 -5.9,0 -11.25,2.4 -15.09,6.24 -3.87,3.9 -6.28,9.25 -6.28,15.11l0 35.15c0,5.88 2.4,11.22 6.24,15.06 3.88,3.89 9.23,6.29 15.11,6.29zm-626.03 20.66c-11.53,0 -22.05,-4.73 -29.66,-12.33 -7.65,-7.66 -12.38,-18.18 -12.38,-29.69l0 -35.15c0,-11.56 4.73,-22.08 12.34,-29.69 7.63,-7.6 18.16,-12.34 29.69,-12.34 11.58,0 22.09,4.73 29.71,12.34 7.59,7.59 12.32,18.13 12.32,29.69l0 35.15c0,11.56 -4.73,22.08 -12.32,29.69 -7.61,7.6 -18.13,12.33 -29.7,12.33zm-0.01 -20.66c5.87,0 11.22,-2.42 15.08,-6.29 3.87,-3.86 6.28,-9.21 6.28,-15.06l0 -35.15c0,-5.86 -2.41,-11.21 -6.28,-15.07 -3.86,-3.87 -9.21,-6.28 -15.07,-6.28 -5.89,0 -11.24,2.4 -15.08,6.24 -3.87,3.9 -6.28,9.25 -6.28,15.11l0 35.15c0,5.88 2.4,11.22 6.24,15.06 3.88,3.89 9.23,6.29 15.11,6.29zm100.55 -145.25l35.72 0 0.33 166 -20.59 0 -0.3 -145.32 -15.16 0 0 -20.67zm-456.36 0l35.71 0 0.34 166 -20.6 0 -0.29 -145.32 -15.16 0 0 -20.67zm1319.84 67.38l-31.1 0c-7.91,0.61 -13.37,2.54 -16.82,5.2 -3.13,2.4 -4.52,5.61 -4.55,8.85 -0.09,10.07 9.93,12.66 19.81,15.18 3.9,0.99 7.81,2 11.55,3.33 6.74,2.4 12.84,5.72 17.56,10.25 5.34,5.15 8.81,11.64 9.39,19.78 0.43,5.81 -0.36,11.73 -3.11,17.19 -2.46,4.88 -6.38,9.2 -12.18,12.46 -3.58,2.01 -8,3.64 -13.47,4.73 -4.99,1.02 -10.83,1.57 -17.71,1.57l-30.33 0 0 -20.66 30.33 0c5.56,0 10.08,-0.41 13.71,-1.13 3.1,-0.58 5.51,-1.46 7.37,-2.5 1.93,-1.08 3.16,-2.38 3.86,-3.75 0.88,-1.76 1.1,-4.04 0.93,-6.45 -0.18,-2.57 -1.33,-4.67 -3.1,-6.37 -2.39,-2.3 -5.98,-4.15 -10.18,-5.64 -3,-1.05 -6.37,-1.92 -9.73,-2.77 -17.67,-4.51 -35.55,-9.1 -35.31,-35.37 0.1,-9.31 3.91,-18.35 12.54,-25 6.6,-5.08 16,-8.65 28.61,-9.52l31.92 -0.04 0 20.67zm-1070.39 0l-31.1 0c-7.92,0.61 -13.38,2.54 -16.83,5.2 -3.13,2.4 -4.52,5.61 -4.55,8.85 -0.09,10.07 9.93,12.66 19.81,15.18 3.9,0.99 7.82,2 11.55,3.33 6.74,2.4 12.84,5.72 17.56,10.25 5.35,5.15 8.81,11.64 9.39,19.78 0.43,5.81 -0.36,11.73 -3.11,17.19 -2.46,4.88 -6.37,9.2 -12.18,12.46 -3.58,2.01 -8,3.64 -13.46,4.73 -5,1.02 -10.84,1.57 -17.72,1.57l-30.33 0 0 -20.66 30.33 0c5.56,0 10.08,-0.41 13.72,-1.13 3.09,-0.58 5.5,-1.46 7.36,-2.5 1.93,-1.08 3.17,-2.38 3.86,-3.75 0.88,-1.76 1.11,-4.04 0.93,-6.45 -0.18,-2.57 -1.33,-4.67 -3.1,-6.37 -2.39,-2.3 -5.98,-4.15 -10.18,-5.64 -3,-1.05 -6.37,-1.92 -9.73,-2.77 -17.67,-4.51 -35.55,-9.1 -35.3,-35.37 0.09,-9.31 3.9,-18.35 12.53,-25 6.6,-5.08 16,-8.65 28.61,-9.52l31.93 -0.04 0 20.67zm300.47 -20.6l35.78 0 0 70.1c0,11.79 2.27,20.76 8.59,25.26 6.24,4.45 16.86,5.89 33.45,3.39l0 -98.74 20.67 0 0 115.76 -8.28 1.69c-27.64,5.62 -45.94,3.15 -57.79,-5.3 -12.76,-9.09 -17.32,-23.77 -17.32,-42.07l0 -49.43 -15.1 0 0 -20.67zm284.1 -0.01l35.77 0 0 108.89 -20.67 0 0 -88.21 -15.09 0 0 -20.67zm-6.68 98.55l64.18 0 0 20.67 -64.18 0 0 -20.67zm-1075.91 -98.55l35.77 0 0 108.89 -20.67 0 0 -88.21 -15.09 0 0 -20.67zm-6.68 98.55l64.18 0 0 20.67 -64.18 0 0 -20.67zm-526.97 -98.54l35.78 0 0 70.1c0,11.79 2.27,20.76 8.59,25.26 6.24,4.45 16.86,5.89 33.45,3.39l0 -98.74 20.67 0 0 115.76 -8.28 1.69c-27.64,5.62 -45.94,3.15 -57.79,-5.3 -12.76,-9.09 -17.32,-23.77 -17.32,-42.07l0 -49.43 -15.1 0 0 -20.67zm233.64 20.6l-31.1 0c-7.92,0.61 -13.38,2.54 -16.83,5.2 -3.12,2.4 -4.51,5.61 -4.55,8.85 -0.09,10.07 9.93,12.66 19.81,15.18 3.9,0.99 7.82,2 11.55,3.33 6.75,2.4 12.85,5.72 17.56,10.25 5.35,5.15 8.81,11.64 9.4,19.78 0.42,5.81 -0.37,11.73 -3.12,17.19 -2.46,4.88 -6.37,9.2 -12.18,12.46 -3.57,2.01 -8,3.64 -13.46,4.73 -5,1.02 -10.84,1.57 -17.71,1.57l-30.34 0 0 -20.66 30.34 0c5.55,0 10.08,-0.41 13.71,-1.13 3.09,-0.58 5.5,-1.46 7.36,-2.5 1.94,-1.08 3.17,-2.38 3.86,-3.75 0.88,-1.76 1.11,-4.04 0.93,-6.45 -0.18,-2.57 -1.33,-4.67 -3.1,-6.37 -2.39,-2.3 -5.98,-4.15 -10.18,-5.64 -3,-1.05 -6.37,-1.92 -9.73,-2.77 -17.67,-4.51 -35.54,-9.1 -35.3,-35.37 0.09,-9.31 3.9,-18.35 12.53,-25 6.6,-5.08 16,-8.65 28.61,-9.52l31.93 -0.04 0 20.67zm-315.74 77.5l-0.17 -71.98c-4.19,-2.43 -9.23,-3.78 -14.38,-3.97 -4.28,-0.15 -8.62,0.5 -12.57,1.99 -3.76,1.42 -7.17,3.61 -9.79,6.55 -3.48,3.9 -5.83,9.37 -6.16,16.51l0.03 32.66c0,6.08 2.18,10.72 5.6,13.86 4.23,3.87 10.45,5.92 17.1,6 5.46,0.08 10.77,-0.33 15.58,-0.94l4.77 -0.68zm-15.44 -147.11l35.72 0 0.36 164.01 -8.23 1.74c-3.93,0.84 -8.84,1.74 -14.58,2.47 -5.66,0.72 -11.93,1.2 -18.42,1.12 -11.53,-0.15 -22.68,-4.05 -30.74,-11.42 -7.59,-6.94 -12.39,-16.7 -12.39,-29.04l0.04 -33.01c0.46,-12.54 4.81,-22.49 11.41,-29.87 4.97,-5.55 11.16,-9.6 17.88,-12.14 6.52,-2.46 13.59,-3.54 20.57,-3.28 4.61,0.17 9.21,0.92 13.6,2.27l-0.06 -32.17 -15.17 0 0 -20.67zm-196.79 74.98c8.01,-10.65 18.99,-17.89 30.25,-21.33 8.41,-2.58 17.12,-3.06 25.01,-1.3 8.48,1.89 16.04,6.25 21.47,13.25 4.86,6.31 7.95,14.55 8.33,24.82l0.04 77.82 -20.67 0 0 -77.46c-0.23,-5.42 -1.7,-9.56 -3.99,-12.52 -2.39,-3.03 -5.78,-4.96 -9.63,-5.82 -4.42,-0.98 -9.52,-0.66 -14.6,0.89 -7.31,2.23 -14.48,6.97 -19.75,13.99l-16.47 -12.36zm-17.2 -25.95l35.78 0 0 119.21 -20.67 0 0 -98.54 -15.1 0 0 -20.67zm-100.84 -0.02l35.77 0 0 108.89 -20.66 0 0 -88.21 -15.1 0 0 -20.67zm-6.68 98.55l64.19 0 0 20.67 -64.19 0 0 -20.67zm32.1 -148.82c8,0 14.49,6.48 14.49,14.49 0,8 -6.49,14.48 -14.49,14.48 -8.01,0 -14.49,-6.48 -14.49,-14.48 0,-8.01 6.48,-14.49 14.49,-14.49zm946.02 0c8.01,0 14.49,6.48 14.49,14.49 0,8 -6.48,14.48 -14.49,14.48 -8,0 -14.48,-6.48 -14.48,-14.48 0,-8.01 6.48,-14.49 14.48,-14.49zm1082.59 0c8.01,0 14.49,6.48 14.49,14.49 0,8 -6.48,14.48 -14.49,14.48 -8,0 -14.48,-6.48 -14.48,-14.48 0,-8.01 6.48,-14.49 14.48,-14.49z"/>
 </g>
</svg>
