<?xml version="1.0" encoding="UTF-8"?>
<!DOCTYPE svg PUBLIC "-//W3C//DTD SVG 1.1//EN" "http://www.w3.org/Graphics/SVG/1.1/DTD/svg11.dtd">
<!-- Creator: CorelDRAW -->
<svg xmlns="http://www.w3.org/2000/svg" xml:space="preserve" width="10.9726mm" height="12.0144mm" version="1.1" style="shape-rendering:geometricPrecision; text-rendering:geometricPrecision; image-rendering:optimizeQuality; fill-rule:evenodd; clip-rule:evenodd"
viewBox="0 0 1412.69 1546.82"
 xmlns:xlink="http://www.w3.org/1999/xlink"
 xmlns:xodm="http://www.corel.com/coreldraw/odm/2003">
 <defs>
  <style type="text/css">
   <![CDATA[
    .fil1 {fill:#FEFEFE}
    .fil3 {fill:#E31E24}
    .fil0 {fill:#020202}
    .fil2 {fill:#FDFDFD}
   ]]>
  </style>
 </defs>
 <g id="Layer_x0020_1">
  <metadata id="CorelCorpID_0Corel-Layer"/>
  <g id="_1947897244736">
   <path class="fil0" d="M6.23 1538.31c41.5,14.12 647.73,6.37 765.02,6.36l454.13 -0.09c45.41,0.01 91.67,5.38 124.81,-10.78 10.43,-41.08 -28.29,-99.17 -44.22,-139.12 -17.81,-44.64 -33.67,-93.06 -48.52,-141.83 -34.17,-112.18 -54.91,-217.39 -55.25,-345 -0.57,-219 76.98,-187.75 -214.2,-188.4 -43.9,-0.1 -147.45,-7.54 -159.98,13.45 -14.27,35.69 9.09,49.81 41.29,49.71l275.96 -0.33c-9.89,165.02 -11.3,257.85 34.58,428.55 13.47,50.1 24.85,93.12 41.61,139.55 13.04,36.11 44.2,99.51 50.46,129.3l-319.81 0.14c-114.21,-251.16 -196.55,-542.33 -177.43,-828.71 10.21,-152.96 31.18,-139.9 -91.15,-140.31l-464.44 0.01c-80.22,0.03 -29.55,80.02 -35.59,263.07 -6.27,189.91 -45.91,358.29 -106.53,533.58 -13.52,39.13 -29.87,77.72 -45.01,115.04 -16.34,40.22 -44.51,74.22 -25.72,115.81z"/>
   <path class="fil1" d="M79.66 1479.84l798.26 0.62c-4.66,-32.25 -48.28,-126.8 -62.76,-167.54 -80.33,-225.85 -90.21,-341.55 -109.05,-586.61l-457.14 -0.26c-16.84,234.26 -29.19,368.67 -106.76,585.08 -12.4,34.59 -59.17,142.48 -62.55,168.71z"/>
   <path class="fil0" d="M843.5 87.82c-49,-5.38 -78.23,-13.05 -124.76,9.08 -34.88,16.6 -59.53,40.43 -76.93,71.93 -66.51,3.64 -102.86,26.93 -122.8,79.08 -20.08,52.5 7.61,29.5 -40.76,57.33 -20.97,12.06 -40.07,31.5 -50.71,52.48 -47.84,94.31 25.97,124.88 45.16,81.42 14.59,-33.04 -0.13,-49.57 28.85,-74.54 29.23,-25.2 53.48,-8.19 68.79,-35.61 14.56,-26.03 -9.81,-51.87 21.09,-80.94 24.69,-23.24 52.57,-10.72 88.04,-16.39 32.2,-36.1 23.14,-75.68 93.11,-85.82 71.73,-10.4 85.31,54.14 123.67,-16 51.22,-93.59 182.83,-83.44 229.79,0.19 10.9,19.44 14.18,44.03 45.83,38.32 21.8,-3.93 33.98,-22.27 69.23,-23.82 107.66,-4.73 154.03,139.85 52.67,196.96 -73.15,41.21 -105.79,-24.76 -141.04,-7.65 -25.62,13.62 -9.18,35.34 -59,75.97 -58.88,48.01 -145.34,36.22 -192.93,-28.88 -43.14,-59 -16.9,-42.49 -88.46,-29.44 -46.09,8.39 -77.54,-7.53 -126.89,11.59 -92.11,35.68 -54.56,113.43 -12.39,90.74 17.88,-9.63 11.54,-25 38.02,-34.86 12.96,-4.83 107.22,-5.48 134.75,-8.6 25.62,47.92 81.87,91.55 168,91.75 75.23,0.18 144.56,-50.64 164.82,-94.96 73.78,7.63 94.63,22.78 160.96,-19.92 80.84,-52.04 111.24,-192.81 3.8,-273.36 -58.86,-44.13 -94.53,-33.46 -166.42,-19.9 -20.33,-49.22 -95.11,-93.17 -163.16,-93.91 -96.73,-1.04 -125.35,46.86 -170.33,87.79z"/>
   <path class="fil2" d="M250.04 660.43l459.29 1.17 6.59 -85.33 -474.03 -1.44c-2.68,25.07 -1.17,66.03 8.15,85.6z"/>
  </g>
  <path class="fil3" d="M497.76 875.92c12.15,-16.76 35.61,-20.51 52.37,-8.37 16.75,12.15 20.5,35.61 8.36,52.36l-78.68 108.25 73.8 0c20.74,0 37.56,16.81 37.56,37.54 0,8.92 -3.12,17.11 -8.32,23.55l-126.28 169.23c-12.39,16.6 -35.91,20.01 -52.5,7.62 -16.6,-12.39 -20.02,-35.89 -7.63,-52.5l82.36 -110.35 -72.63 0c-7.63,-0.05 -15.35,-2.36 -22,-7.18 -16.76,-12.15 -20.51,-35.6 -8.36,-52.36l121.95 -167.78z"/>
 </g>
</svg>
