<?xml version="1.0" encoding="UTF-8"?>
<!DOCTYPE svg PUBLIC "-//W3C//DTD SVG 1.1//EN" "http://www.w3.org/Graphics/SVG/1.1/DTD/svg11.dtd">
<!-- Creator: CorelDRAW -->
<svg xmlns="http://www.w3.org/2000/svg" xml:space="preserve" width="12.9372mm" height="12.7mm" version="1.1" style="shape-rendering:geometricPrecision; text-rendering:geometricPrecision; image-rendering:optimizeQuality; fill-rule:evenodd; clip-rule:evenodd"
viewBox="0 0 887.1 870.84"
 xmlns:xlink="http://www.w3.org/1999/xlink"
 xmlns:xodm="http://www.corel.com/coreldraw/odm/2003">
 <defs>
  <style type="text/css">
   <![CDATA[
    .fil0 {fill:#E31E24}
    .fil1 {fill:#2B2A29;fill-rule:nonzero}
   ]]>
  </style>
 </defs>
 <g id="Layer_x0020_1">
  <metadata id="CorelCorpID_0Corel-Layer"/>
  <path class="fil0" d="M499.32 870.84c-17.6,0 -32.01,-14.4 -32.01,-32.01l0 -186.6c0,-75.57 -5.68,-68.93 46.29,-100.02l139.13 -83.22c10.59,-6.34 30.84,-6.34 41.44,0l139.13 83.22c51.98,31.09 46.29,24.45 46.29,100.02l0 186.6c0,17.61 -14.41,32.01 -32.01,32.01l-348.27 0zm183.18 -268.29c6.14,-8.48 18,-10.37 26.48,-4.22 8.48,6.14 10.37,18.01 4.22,26.48l-39.79 54.74 37.33 0c10.48,0 18.99,8.5 18.99,18.99 0,4.51 -1.57,8.65 -4.2,11.92l-63.87 85.58c-6.26,8.39 -18.16,10.12 -26.55,3.85 -8.39,-6.26 -10.12,-18.16 -3.86,-26.55l41.65 -55.81 -36.73 0c-3.86,-0.03 -7.76,-1.19 -11.13,-3.63 -8.48,-6.14 -10.37,-18.01 -4.23,-26.48l61.69 -84.86z"/>
  <path class="fil1" d="M410.99 692.27c8.63,1.16 14.69,9.11 13.54,17.74 -1.16,8.63 -9.11,14.69 -17.74,13.54 -68.95,-9.48 -129.91,-43.9 -173.41,-93.84 -42.96,-49.34 -68.98,-113.81 -68.98,-184.36 0,-77.56 31.45,-147.78 82.28,-198.61 50.83,-50.83 121.06,-82.28 198.62,-82.28 74.24,0 141.79,28.86 192.04,75.98 50.53,47.37 83.54,113.25 88.22,186.83 0.54,8.7 -6.08,16.21 -14.78,16.75 -8.7,0.55 -16.2,-6.07 -16.75,-14.77 -4.16,-65.29 -33.46,-123.75 -78.33,-165.82 -44.53,-41.75 -104.46,-67.31 -170.41,-67.31 -68.83,0 -131.15,27.9 -176.24,73 -45.1,45.1 -73,107.41 -73,176.24 0,62.62 23.09,119.83 61.19,163.59 38.65,44.38 92.7,74.95 153.75,83.34z"/>
  <path class="fil1" d="M487.34 280.57c-8.53,-1.71 -14.06,-10.01 -12.36,-18.54 1.7,-8.54 10.01,-14.07 18.54,-12.36 38.03,7.72 71.9,26.79 97.88,53.49 25.97,26.69 44.15,61 50.82,99.23 1.51,8.6 -4.25,16.79 -12.85,18.29 -8.6,1.51 -16.79,-4.25 -18.29,-12.85 -5.57,-31.88 -20.69,-60.46 -42.3,-82.66 -21.69,-22.29 -49.88,-38.19 -81.45,-44.6z"/>
  <path class="fil1" d="M418.76 817.61c5.42,6.82 4.29,16.77 -2.54,22.19 -6.82,5.42 -16.77,4.29 -22.18,-2.54 -2.85,-3.58 -5.57,-6.82 -8.15,-9.7 -2.32,-2.6 -5.25,-5.67 -8.8,-9.22 -30.07,-30.07 -66.53,-49.72 -104.9,-58.94 -39.78,-9.55 -81.71,-8 -120.85,4.67 -3.94,1.3 -8.05,1.42 -11.97,0.48l-0.05 -0.01c-3.95,-0.95 -7.54,-2.95 -10.48,-5.91l-3.31 -3.37c-2.92,-3.01 -4.85,-6.64 -5.75,-10.56l-0.21 -1.1c-0.63,-3.63 -0.37,-7.36 0.86,-10.93l0.26 -0.71c3.81,-11.25 6.73,-22.83 8.69,-34.64 1.94,-11.74 2.96,-23.97 2.96,-36.61 0,-42.33 -11.79,-81.85 -32.28,-115.44 -21.22,-34.81 -51.74,-63.33 -88.11,-82.1 -3.66,-1.9 -6.64,-4.71 -8.74,-8.15 -2.11,-3.41 -3.22,-7.36 -3.21,-11.51l0.05 -5.81c0.08,-4.2 1.26,-8.11 3.37,-11.45 2.16,-3.41 5.2,-6.17 8.93,-8.02 10.72,-5.31 21.04,-11.49 30.84,-18.54 9.48,-6.81 18.7,-14.64 27.55,-23.5 29.83,-29.83 49.41,-65.96 58.71,-104 9.65,-39.46 8.34,-81.1 -3.93,-120.06 -1.23,-3.92 -1.33,-8 -0.38,-11.89 0.95,-3.87 2.96,-7.45 5.9,-10.38l4.76 -4.66c2.96,-2.85 6.53,-4.76 10.41,-5.64 3.85,-0.89 7.91,-0.71 11.87,0.6 11.13,3.7 22.7,6.56 34.6,8.49 11.4,1.84 23.32,2.8 35.69,2.8 42.2,0 81.57,-11.69 115.04,-31.99 34.71,-21.05 63.19,-51.35 82.06,-87.47l-0.05 -0.03c1.92,-3.69 4.75,-6.67 8.19,-8.74 0.66,-0.4 1.32,-0.73 2.01,-1.03 2.94,-1.41 6.14,-2.16 9.44,-2.16l0 0.06 6.73 0.04c4.16,0.05 8.06,1.21 11.44,3.31 3.41,2.11 6.18,5.13 8.04,8.83l0.4 0.86c5.15,10.18 11.17,20.09 18.05,29.62 6.72,9.3 14.45,18.38 23.18,27.11 29.9,29.89 66.1,49.48 104.23,58.76 39.51,9.62 81.2,8.24 120.21,-4.12 3.9,-1.23 7.97,-1.34 11.88,-0.38l1.19 0.34c3.45,1.04 6.59,2.89 9.2,5.49l4.37 4.41c2.88,2.96 4.83,6.56 5.73,10.49 0.91,3.88 0.73,7.97 -0.61,11.96 -3.76,11.2 -6.66,22.84 -8.6,34.81 -1.87,11.49 -2.84,23.47 -2.84,35.88 0,42.43 11.86,82.06 32.43,115.7 21.32,34.87 51.96,63.41 88.42,82.11 7.75,3.96 10.82,13.45 6.86,21.2 -3.96,7.75 -13.45,10.82 -21.2,6.86 -41.7,-21.39 -76.72,-53.97 -101.03,-93.74 -23.55,-38.53 -37.13,-83.78 -37.13,-132.14 0,-13.75 1.15,-27.43 3.34,-40.94 1.58,-9.74 3.72,-19.3 6.39,-28.64 -41.16,11 -84.6,11.46 -126.02,1.37 -43.73,-10.65 -85.14,-33 -119.19,-67.05 -9.6,-9.61 -18.41,-20.01 -26.4,-31.07 -5.84,-8.08 -11.15,-16.46 -15.95,-25.09 -21.39,37.03 -51.89,68.17 -88.44,90.33 -38.39,23.28 -83.36,36.69 -131.36,36.69 -13.61,0 -27.19,-1.13 -40.63,-3.31 -9.84,-1.58 -19.51,-3.75 -28.98,-6.45 11.03,41.24 11.48,84.78 1.34,126.26 -10.67,43.66 -33.01,84.98 -66.99,118.96 -9.74,9.74 -20.3,18.66 -31.5,26.71 -8,5.75 -16.21,10.96 -24.6,15.63 36.86,21.3 67.86,51.63 90,87.93 23.46,38.48 36.97,83.63 36.97,131.87 0,14.02 -1.19,27.96 -3.46,41.68 -1.58,9.53 -3.68,18.86 -6.26,27.94 40.91,-10.94 84.05,-11.46 125.22,-1.58 44.04,10.58 85.75,33 119.98,67.22 2.91,2.91 6.22,6.45 9.92,10.59 3.49,3.91 6.62,7.6 9.37,11.06z"/>
 </g>
</svg>
